<?xml version="1.0" encoding="UTF-8" standalone="no"?><svg xmlns="http://www.w3.org/2000/svg" xmlns:xlink="http://www.w3.org/1999/xlink" contentScriptType="application/ecmascript" contentStyleType="text/css" height="426px" preserveAspectRatio="none" style="width:821px;height:426px;background:#FFFFFF;" version="1.1" viewBox="0 0 821 426" width="821px" zoomAndPan="magnify"><defs><filter height="300%" id="f88kao95p5aol" width="300%" x="-1" y="-1"><feGaussianBlur result="blurOut" stdDeviation="2.0"/><feColorMatrix in="blurOut" result="blurOut2" type="matrix" values="0 0 0 0 0 0 0 0 0 0 0 0 0 0 0 0 0 0 .4 0"/><feOffset dx="4.0" dy="4.0" in="blurOut2" result="blurOut3"/><feBlend in="SourceGraphic" in2="blurOut3" mode="normal"/></filter></defs><g><rect fill="#FFFFFF" filter="url(#f88kao95p5aol)" height="46.2656" style="stroke:#000000;stroke-width:2.0;" width="533.5" x="10" y="176.5625"/><rect fill="#FFFFFF" filter="url(#f88kao95p5aol)" height="88.3984" style="stroke:#000000;stroke-width:2.0;" width="797" x="10" y="236.8281"/><line style="stroke:#A80036;stroke-width:1.0;stroke-dasharray:5.0,5.0;" x1="49" x2="49" y1="88.2969" y2="342.2266"/><line style="stroke:#A80036;stroke-width:1.0;stroke-dasharray:5.0,5.0;" x1="496.5" x2="496.5" y1="88.2969" y2="342.2266"/><text fill="#000000" font-family="sans-serif" font-size="14" lengthAdjust="spacing" textLength="52" x="20" y="84.9951">Usuário</text><ellipse cx="49" cy="15" fill="#FEFECE" filter="url(#f88kao95p5aol)" rx="8" ry="8" style="stroke:#A80036;stroke-width:2.0;"/><path d="M49,23 L49,50 M36,31 L62,31 M49,50 L36,65 M49,50 L62,65 " fill="none" filter="url(#f88kao95p5aol)" style="stroke:#A80036;stroke-width:2.0;"/><text fill="#000000" font-family="sans-serif" font-size="14" lengthAdjust="spacing" textLength="52" x="20" y="354.2217">Usuário</text><ellipse cx="49" cy="367.5234" fill="#FEFECE" filter="url(#f88kao95p5aol)" rx="8" ry="8" style="stroke:#A80036;stroke-width:2.0;"/><path d="M49,375.5234 L49,402.5234 M36,383.5234 L62,383.5234 M49,402.5234 L36,417.5234 M49,402.5234 L62,417.5234 " fill="none" filter="url(#f88kao95p5aol)" style="stroke:#A80036;stroke-width:2.0;"/><rect fill="#FEFECE" filter="url(#f88kao95p5aol)" height="30.2969" style="stroke:#A80036;stroke-width:1.5;" width="69" x="460.5" y="53"/><text fill="#000000" font-family="sans-serif" font-size="14" lengthAdjust="spacing" textLength="55" x="467.5" y="72.9951">Sistema</text><rect fill="#FEFECE" filter="url(#f88kao95p5aol)" height="30.2969" style="stroke:#A80036;stroke-width:1.5;" width="69" x="460.5" y="341.2266"/><text fill="#000000" font-family="sans-serif" font-size="14" lengthAdjust="spacing" textLength="55" x="467.5" y="361.2217">Sistema</text><polygon fill="#A80036" points="485,115.4297,495,119.4297,485,123.4297,489,119.4297" style="stroke:#A80036;stroke-width:1.0;"/><line style="stroke:#A80036;stroke-width:1.0;" x1="49" x2="491" y1="119.4297" y2="119.4297"/><text fill="#000000" font-family="sans-serif" font-size="13" lengthAdjust="spacing" textLength="191" x="56" y="114.3638">Solicita a listagem das contas</text><line style="stroke:#A80036;stroke-width:1.0;" x1="497" x2="539" y1="148.5625" y2="148.5625"/><line style="stroke:#A80036;stroke-width:1.0;" x1="539" x2="539" y1="148.5625" y2="161.5625"/><line style="stroke:#A80036;stroke-width:1.0;" x1="498" x2="539" y1="161.5625" y2="161.5625"/><polygon fill="#A80036" points="508,157.5625,498,161.5625,508,165.5625,504,161.5625" style="stroke:#A80036;stroke-width:1.0;"/><text fill="#000000" font-family="sans-serif" font-size="13" lengthAdjust="spacing" textLength="241" x="504" y="143.4966">Verifica se o usuário está autenticado</text><path d="M10,176.5625 L272,176.5625 L272,183.5625 L262,193.5625 L10,193.5625 L10,176.5625 " fill="#EEEEEE" style="stroke:#000000;stroke-width:1.0;"/><rect fill="none" height="46.2656" style="stroke:#000000;stroke-width:2.0;" width="533.5" x="10" y="176.5625"/><text fill="#000000" font-family="sans-serif" font-size="13" font-weight="bold" lengthAdjust="spacing" textLength="217" x="25" y="189.6294">Usuário não está autenticado</text><polygon fill="#A80036" points="60,210.8281,50,214.8281,60,218.8281,56,214.8281" style="stroke:#A80036;stroke-width:1.0;"/><line style="stroke:#A80036;stroke-width:1.0;" x1="54" x2="496" y1="214.8281" y2="214.8281"/><text fill="#000000" font-family="sans-serif" font-size="13" lengthAdjust="spacing" textLength="424" x="66" y="209.7622">Exibe um erro informando que o usuário precisa estar autenticado</text><path d="M10,236.8281 L240,236.8281 L240,243.8281 L230,253.8281 L10,253.8281 L10,236.8281 " fill="#EEEEEE" style="stroke:#000000;stroke-width:1.0;"/><rect fill="none" height="88.3984" style="stroke:#000000;stroke-width:2.0;" width="797" x="10" y="236.8281"/><text fill="#000000" font-family="sans-serif" font-size="13" font-weight="bold" lengthAdjust="spacing" textLength="185" x="25" y="249.895">Usuário está autenticado</text><line style="stroke:#A80036;stroke-width:1.0;" x1="497" x2="539" y1="275.0938" y2="275.0938"/><line style="stroke:#A80036;stroke-width:1.0;" x1="539" x2="539" y1="275.0938" y2="288.0938"/><line style="stroke:#A80036;stroke-width:1.0;" x1="498" x2="539" y1="288.0938" y2="288.0938"/><polygon fill="#A80036" points="508,284.0938,498,288.0938,508,292.0938,504,288.0938" style="stroke:#A80036;stroke-width:1.0;"/><text fill="#000000" font-family="sans-serif" font-size="13" lengthAdjust="spacing" textLength="291" x="504" y="270.0278">Realiza a busca das contas do usuário logado</text><polygon fill="#A80036" points="60,313.2266,50,317.2266,60,321.2266,56,317.2266" style="stroke:#A80036;stroke-width:1.0;"/><line style="stroke:#A80036;stroke-width:1.0;" x1="54" x2="496" y1="317.2266" y2="317.2266"/><text fill="#000000" font-family="sans-serif" font-size="13" lengthAdjust="spacing" textLength="225" x="66" y="312.1606">Exibe as contas dos usuário logado</text><!--MD5=[fcbbc8fb01eeeb8f795d656cdb4c7c84]
@startuml CON02

actor Usuário
participant Sistema

Usuário -> Sistema: Solicita a listagem das contas

Sistema -> Sistema: Verifica se o usuário está autenticado

group Usuário não está autenticado
  Sistema -> Usuário: Exibe um erro informando que o usuário precisa estar autenticado
end

group Usuário está autenticado
  Sistema -> Sistema: Realiza a busca das contas do usuário logado
  Sistema -> Usuário: Exibe as contas dos usuário logado
end

@enduml

PlantUML version 1.2021.16(Wed Dec 08 14:25:22 BRT 2021)
(GPL source distribution)
Java Runtime: OpenJDK Runtime Environment
JVM: OpenJDK 64-Bit Server VM
Default Encoding: UTF-8
Language: en
Country: null
--></g></svg>