<?xml version="1.0" encoding="UTF-8" standalone="no"?><svg xmlns="http://www.w3.org/2000/svg" xmlns:xlink="http://www.w3.org/1999/xlink" contentScriptType="application/ecmascript" contentStyleType="text/css" height="693px" preserveAspectRatio="none" style="width:1352px;height:693px;background:#FFFFFF;" version="1.1" viewBox="0 0 1352 693" width="1352px" zoomAndPan="magnify"><defs><filter height="300%" id="fheljgs4da7qt" width="300%" x="-1" y="-1"><feGaussianBlur result="blurOut" stdDeviation="2.0"/><feColorMatrix in="blurOut" result="blurOut2" type="matrix" values="0 0 0 0 0 0 0 0 0 0 0 0 0 0 0 0 0 0 .4 0"/><feOffset dx="4.0" dy="4.0" in="blurOut2" result="blurOut3"/><feBlend in="SourceGraphic" in2="blurOut3" mode="normal"/></filter></defs><g><rect fill="#FFFFFF" filter="url(#fheljgs4da7qt)" height="46.2656" style="stroke:#000000;stroke-width:2.0;" width="791.5" x="30" y="176.5625"/><rect fill="#FFFFFF" filter="url(#fheljgs4da7qt)" height="355.4609" style="stroke:#000000;stroke-width:2.0;" width="1328" x="10" y="236.8281"/><rect fill="#FFFFFF" filter="url(#fheljgs4da7qt)" height="221.9297" style="stroke:#000000;stroke-width:2.0;" width="1026" x="20" y="303.0938"/><rect fill="#FFFFFF" filter="url(#fheljgs4da7qt)" height="88.3984" style="stroke:#000000;stroke-width:2.0;" width="969" x="30" y="369.3594"/><rect fill="#FFFFFF" filter="url(#fheljgs4da7qt)" height="46.2656" style="stroke:#000000;stroke-width:2.0;" width="791.5" x="30" y="471.7578"/><rect fill="#FFFFFF" filter="url(#fheljgs4da7qt)" height="46.2656" style="stroke:#000000;stroke-width:2.0;" width="791.5" x="30" y="539.0234"/><line style="stroke:#A80036;stroke-width:1.0;stroke-dasharray:5.0,5.0;" x1="69" x2="69" y1="88.2969" y2="609.2891"/><line style="stroke:#A80036;stroke-width:1.0;stroke-dasharray:5.0,5.0;" x1="774.5" x2="774.5" y1="88.2969" y2="609.2891"/><text fill="#000000" font-family="sans-serif" font-size="14" lengthAdjust="spacing" textLength="52" x="40" y="84.9951">Usuário</text><ellipse cx="69" cy="15" fill="#FEFECE" filter="url(#fheljgs4da7qt)" rx="8" ry="8" style="stroke:#A80036;stroke-width:2.0;"/><path d="M69,23 L69,50 M56,31 L82,31 M69,50 L56,65 M69,50 L82,65 " fill="none" filter="url(#fheljgs4da7qt)" style="stroke:#A80036;stroke-width:2.0;"/><text fill="#000000" font-family="sans-serif" font-size="14" lengthAdjust="spacing" textLength="52" x="40" y="621.2842">Usuário</text><ellipse cx="69" cy="634.5859" fill="#FEFECE" filter="url(#fheljgs4da7qt)" rx="8" ry="8" style="stroke:#A80036;stroke-width:2.0;"/><path d="M69,642.5859 L69,669.5859 M56,650.5859 L82,650.5859 M69,669.5859 L56,684.5859 M69,669.5859 L82,684.5859 " fill="none" filter="url(#fheljgs4da7qt)" style="stroke:#A80036;stroke-width:2.0;"/><rect fill="#FEFECE" filter="url(#fheljgs4da7qt)" height="30.2969" style="stroke:#A80036;stroke-width:1.5;" width="69" x="738.5" y="53"/><text fill="#000000" font-family="sans-serif" font-size="14" lengthAdjust="spacing" textLength="55" x="745.5" y="72.9951">Sistema</text><rect fill="#FEFECE" filter="url(#fheljgs4da7qt)" height="30.2969" style="stroke:#A80036;stroke-width:1.5;" width="69" x="738.5" y="608.2891"/><text fill="#000000" font-family="sans-serif" font-size="14" lengthAdjust="spacing" textLength="55" x="745.5" y="628.2842">Sistema</text><polygon fill="#A80036" points="763,115.4297,773,119.4297,763,123.4297,767,119.4297" style="stroke:#A80036;stroke-width:1.0;"/><line style="stroke:#A80036;stroke-width:1.0;" x1="69" x2="769" y1="119.4297" y2="119.4297"/><text fill="#000000" font-family="sans-serif" font-size="13" lengthAdjust="spacing" textLength="277" x="76" y="114.3638">Envia os dados para cadastro da transação</text><line style="stroke:#A80036;stroke-width:1.0;" x1="775" x2="817" y1="148.5625" y2="148.5625"/><line style="stroke:#A80036;stroke-width:1.0;" x1="817" x2="817" y1="148.5625" y2="161.5625"/><line style="stroke:#A80036;stroke-width:1.0;" x1="776" x2="817" y1="161.5625" y2="161.5625"/><polygon fill="#A80036" points="786,157.5625,776,161.5625,786,165.5625,782,161.5625" style="stroke:#A80036;stroke-width:1.0;"/><text fill="#000000" font-family="sans-serif" font-size="13" lengthAdjust="spacing" textLength="241" x="782" y="143.4966">Verifica se o usuário está autenticado</text><path d="M30,176.5625 L292,176.5625 L292,183.5625 L282,193.5625 L30,193.5625 L30,176.5625 " fill="#EEEEEE" style="stroke:#000000;stroke-width:1.0;"/><rect fill="none" height="46.2656" style="stroke:#000000;stroke-width:2.0;" width="791.5" x="30" y="176.5625"/><text fill="#000000" font-family="sans-serif" font-size="13" font-weight="bold" lengthAdjust="spacing" textLength="217" x="45" y="189.6294">Usuário não está autenticado</text><polygon fill="#A80036" points="80,210.8281,70,214.8281,80,218.8281,76,214.8281" style="stroke:#A80036;stroke-width:1.0;"/><line style="stroke:#A80036;stroke-width:1.0;" x1="74" x2="774" y1="214.8281" y2="214.8281"/><text fill="#000000" font-family="sans-serif" font-size="13" lengthAdjust="spacing" textLength="424" x="86" y="209.7622">Exibe um erro informando que o usuário precisa estar autenticado</text><path d="M10,236.8281 L240,236.8281 L240,243.8281 L230,253.8281 L10,253.8281 L10,236.8281 " fill="#EEEEEE" style="stroke:#000000;stroke-width:1.0;"/><rect fill="none" height="355.4609" style="stroke:#000000;stroke-width:2.0;" width="1328" x="10" y="236.8281"/><text fill="#000000" font-family="sans-serif" font-size="13" font-weight="bold" lengthAdjust="spacing" textLength="185" x="25" y="249.895">Usuário está autenticado</text><line style="stroke:#A80036;stroke-width:1.0;" x1="775" x2="817" y1="275.0938" y2="275.0938"/><line style="stroke:#A80036;stroke-width:1.0;" x1="817" x2="817" y1="275.0938" y2="288.0938"/><line style="stroke:#A80036;stroke-width:1.0;" x1="776" x2="817" y1="288.0938" y2="288.0938"/><polygon fill="#A80036" points="786,284.0938,776,288.0938,786,292.0938,782,288.0938" style="stroke:#A80036;stroke-width:1.0;"/><text fill="#000000" font-family="sans-serif" font-size="13" lengthAdjust="spacing" textLength="544" x="782" y="270.0278">Verifica se o usuário logado é dono da conta para qual está cadastrando a transação</text><path d="M20,303.0938 L302,303.0938 L302,310.0938 L292,320.0938 L20,320.0938 L20,303.0938 " fill="#EEEEEE" style="stroke:#000000;stroke-width:1.0;"/><rect fill="none" height="221.9297" style="stroke:#000000;stroke-width:2.0;" width="1026" x="20" y="303.0938"/><text fill="#000000" font-family="sans-serif" font-size="13" font-weight="bold" lengthAdjust="spacing" textLength="237" x="35" y="316.1606">Usuário logado é dono da conta</text><line style="stroke:#A80036;stroke-width:1.0;" x1="775" x2="817" y1="341.3594" y2="341.3594"/><line style="stroke:#A80036;stroke-width:1.0;" x1="817" x2="817" y1="341.3594" y2="354.3594"/><line style="stroke:#A80036;stroke-width:1.0;" x1="776" x2="817" y1="354.3594" y2="354.3594"/><polygon fill="#A80036" points="786,350.3594,776,354.3594,786,358.3594,782,354.3594" style="stroke:#A80036;stroke-width:1.0;"/><text fill="#000000" font-family="sans-serif" font-size="13" lengthAdjust="spacing" textLength="252" x="782" y="336.2935">Realiza a validação dos dados enviados</text><path d="M30,369.3594 L179,369.3594 L179,376.3594 L169,386.3594 L30,386.3594 L30,369.3594 " fill="#EEEEEE" style="stroke:#000000;stroke-width:1.0;"/><rect fill="none" height="88.3984" style="stroke:#000000;stroke-width:2.0;" width="969" x="30" y="369.3594"/><text fill="#000000" font-family="sans-serif" font-size="13" font-weight="bold" lengthAdjust="spacing" textLength="104" x="45" y="382.4263">Dados válidos</text><line style="stroke:#A80036;stroke-width:1.0;" x1="775" x2="817" y1="407.625" y2="407.625"/><line style="stroke:#A80036;stroke-width:1.0;" x1="817" x2="817" y1="407.625" y2="420.625"/><line style="stroke:#A80036;stroke-width:1.0;" x1="776" x2="817" y1="420.625" y2="420.625"/><polygon fill="#A80036" points="786,416.625,776,420.625,786,424.625,782,420.625" style="stroke:#A80036;stroke-width:1.0;"/><text fill="#000000" font-family="sans-serif" font-size="13" lengthAdjust="spacing" textLength="205" x="782" y="402.5591">Realiza o cadastro da transação</text><polygon fill="#A80036" points="80,445.7578,70,449.7578,80,453.7578,76,449.7578" style="stroke:#A80036;stroke-width:1.0;"/><line style="stroke:#A80036;stroke-width:1.0;stroke-dasharray:2.0,2.0;" x1="74" x2="774" y1="449.7578" y2="449.7578"/><text fill="#000000" font-family="sans-serif" font-size="13" lengthAdjust="spacing" textLength="195" x="86" y="444.6919">Retorna os dados cadastrados</text><path d="M30,471.7578 L192,471.7578 L192,478.7578 L182,488.7578 L30,488.7578 L30,471.7578 " fill="#EEEEEE" style="stroke:#000000;stroke-width:1.0;"/><rect fill="none" height="46.2656" style="stroke:#000000;stroke-width:2.0;" width="791.5" x="30" y="471.7578"/><text fill="#000000" font-family="sans-serif" font-size="13" font-weight="bold" lengthAdjust="spacing" textLength="117" x="45" y="484.8247">Dados inválidos</text><polygon fill="#A80036" points="80,506.0234,70,510.0234,80,514.0234,76,510.0234" style="stroke:#A80036;stroke-width:1.0;"/><line style="stroke:#A80036;stroke-width:1.0;stroke-dasharray:2.0,2.0;" x1="74" x2="774" y1="510.0234" y2="510.0234"/><text fill="#000000" font-family="sans-serif" font-size="13" lengthAdjust="spacing" textLength="217" x="86" y="504.9575">Exibe a lista de erros de validação</text><path d="M30,539.0234 L344,539.0234 L344,546.0234 L334,556.0234 L30,556.0234 L30,539.0234 " fill="#EEEEEE" style="stroke:#000000;stroke-width:1.0;"/><rect fill="none" height="46.2656" style="stroke:#000000;stroke-width:2.0;" width="791.5" x="30" y="539.0234"/><text fill="#000000" font-family="sans-serif" font-size="13" font-weight="bold" lengthAdjust="spacing" textLength="269" x="45" y="552.0903">Usuário logado não é dono da conta</text><polygon fill="#A80036" points="80,573.2891,70,577.2891,80,581.2891,76,577.2891" style="stroke:#A80036;stroke-width:1.0;"/><line style="stroke:#A80036;stroke-width:1.0;" x1="74" x2="774" y1="577.2891" y2="577.2891"/><text fill="#000000" font-family="sans-serif" font-size="13" lengthAdjust="spacing" textLength="682" x="86" y="572.2231">Exibe um erro informando que o usuário logado não é dono da conta para qual quer cadastrar a transação</text><!--MD5=[3afd1fd706bd4568fa9e62cb5eb92e01]
@startuml TRA01

actor Usuário
participant Sistema

Usuário -> Sistema: Envia os dados para cadastro da transação

Sistema -> Sistema: Verifica se o usuário está autenticado

group Usuário não está autenticado
  Sistema -> Usuário: Exibe um erro informando que o usuário precisa estar autenticado
end

group Usuário está autenticado
  Sistema -> Sistema: Verifica se o usuário logado é dono da conta para qual está cadastrando a transação

  group Usuário logado é dono da conta
    Sistema -> Sistema: Realiza a validação dos dados enviados
    group Dados válidos
      Sistema -> Sistema: Realiza o cadastro da transação
      Sistema - -> Usuário: Retorna os dados cadastrados
    end

    group Dados inválidos
      Sistema - -> Usuário: Exibe a lista de erros de validação
    end
  end

  group Usuário logado não é dono da conta
    Sistema -> Usuário: Exibe um erro informando que o usuário logado não é dono da conta para qual quer cadastrar a transação
  end
end

@enduml

PlantUML version 1.2021.16(Wed Dec 08 14:25:22 BRT 2021)
(GPL source distribution)
Java Runtime: OpenJDK Runtime Environment
JVM: OpenJDK 64-Bit Server VM
Default Encoding: UTF-8
Language: en
Country: null
--></g></svg>