<?xml version="1.0" encoding="UTF-8" standalone="no"?><svg xmlns="http://www.w3.org/2000/svg" xmlns:xlink="http://www.w3.org/1999/xlink" contentScriptType="application/ecmascript" contentStyleType="text/css" height="426px" preserveAspectRatio="none" style="width:584px;height:426px;background:#FFFFFF;" version="1.1" viewBox="0 0 584 426" width="584px" zoomAndPan="magnify"><defs><filter height="300%" id="fjkzn54acfy0e" width="300%" x="-1" y="-1"><feGaussianBlur result="blurOut" stdDeviation="2.0"/><feColorMatrix in="blurOut" result="blurOut2" type="matrix" values="0 0 0 0 0 0 0 0 0 0 0 0 0 0 0 0 0 0 .4 0"/><feOffset dx="4.0" dy="4.0" in="blurOut2" result="blurOut3"/><feBlend in="SourceGraphic" in2="blurOut3" mode="normal"/></filter></defs><g><rect fill="#FFFFFF" filter="url(#fjkzn54acfy0e)" height="88.3984" style="stroke:#000000;stroke-width:2.0;" width="560" x="10" y="176.5625"/><rect fill="#FFFFFF" filter="url(#fjkzn54acfy0e)" height="46.2656" style="stroke:#000000;stroke-width:2.0;" width="372.5" x="10" y="278.9609"/><line style="stroke:#A80036;stroke-width:1.0;stroke-dasharray:5.0,5.0;" x1="49" x2="49" y1="88.2969" y2="342.2266"/><line style="stroke:#A80036;stroke-width:1.0;stroke-dasharray:5.0,5.0;" x1="335.5" x2="335.5" y1="88.2969" y2="342.2266"/><text fill="#000000" font-family="sans-serif" font-size="14" lengthAdjust="spacing" textLength="52" x="20" y="84.9951">Usuário</text><ellipse cx="49" cy="15" fill="#FEFECE" filter="url(#fjkzn54acfy0e)" rx="8" ry="8" style="stroke:#A80036;stroke-width:2.0;"/><path d="M49,23 L49,50 M36,31 L62,31 M49,50 L36,65 M49,50 L62,65 " fill="none" filter="url(#fjkzn54acfy0e)" style="stroke:#A80036;stroke-width:2.0;"/><text fill="#000000" font-family="sans-serif" font-size="14" lengthAdjust="spacing" textLength="52" x="20" y="354.2217">Usuário</text><ellipse cx="49" cy="367.5234" fill="#FEFECE" filter="url(#fjkzn54acfy0e)" rx="8" ry="8" style="stroke:#A80036;stroke-width:2.0;"/><path d="M49,375.5234 L49,402.5234 M36,383.5234 L62,383.5234 M49,402.5234 L36,417.5234 M49,402.5234 L62,417.5234 " fill="none" filter="url(#fjkzn54acfy0e)" style="stroke:#A80036;stroke-width:2.0;"/><rect fill="#FEFECE" filter="url(#fjkzn54acfy0e)" height="30.2969" style="stroke:#A80036;stroke-width:1.5;" width="69" x="299.5" y="53"/><text fill="#000000" font-family="sans-serif" font-size="14" lengthAdjust="spacing" textLength="55" x="306.5" y="72.9951">Sistema</text><rect fill="#FEFECE" filter="url(#fjkzn54acfy0e)" height="30.2969" style="stroke:#A80036;stroke-width:1.5;" width="69" x="299.5" y="341.2266"/><text fill="#000000" font-family="sans-serif" font-size="14" lengthAdjust="spacing" textLength="55" x="306.5" y="361.2217">Sistema</text><polygon fill="#A80036" points="324,115.4297,334,119.4297,324,123.4297,328,119.4297" style="stroke:#A80036;stroke-width:1.0;"/><line style="stroke:#A80036;stroke-width:1.0;" x1="49" x2="330" y1="119.4297" y2="119.4297"/><text fill="#000000" font-family="sans-serif" font-size="13" lengthAdjust="spacing" textLength="135" x="56" y="114.3638">Envia o refresh token</text><line style="stroke:#A80036;stroke-width:1.0;" x1="336" x2="378" y1="148.5625" y2="148.5625"/><line style="stroke:#A80036;stroke-width:1.0;" x1="378" x2="378" y1="148.5625" y2="161.5625"/><line style="stroke:#A80036;stroke-width:1.0;" x1="337" x2="378" y1="161.5625" y2="161.5625"/><polygon fill="#A80036" points="347,157.5625,337,161.5625,347,165.5625,343,161.5625" style="stroke:#A80036;stroke-width:1.0;"/><text fill="#000000" font-family="sans-serif" font-size="13" lengthAdjust="spacing" textLength="230" x="343" y="143.4966">Realiza a validação do refresh token</text><path d="M10,176.5625 L208,176.5625 L208,183.5625 L198,193.5625 L10,193.5625 L10,176.5625 " fill="#EEEEEE" style="stroke:#000000;stroke-width:1.0;"/><rect fill="none" height="88.3984" style="stroke:#000000;stroke-width:2.0;" width="560" x="10" y="176.5625"/><text fill="#000000" font-family="sans-serif" font-size="13" font-weight="bold" lengthAdjust="spacing" textLength="153" x="25" y="189.6294">Refresh token válido</text><line style="stroke:#A80036;stroke-width:1.0;" x1="336" x2="378" y1="214.8281" y2="214.8281"/><line style="stroke:#A80036;stroke-width:1.0;" x1="378" x2="378" y1="214.8281" y2="227.8281"/><line style="stroke:#A80036;stroke-width:1.0;" x1="337" x2="378" y1="227.8281" y2="227.8281"/><polygon fill="#A80036" points="347,223.8281,337,227.8281,347,231.8281,343,227.8281" style="stroke:#A80036;stroke-width:1.0;"/><text fill="#000000" font-family="sans-serif" font-size="13" lengthAdjust="spacing" textLength="215" x="343" y="209.7622">Realiza a autenticação do usuário</text><polygon fill="#A80036" points="60,252.9609,50,256.9609,60,260.9609,56,256.9609" style="stroke:#A80036;stroke-width:1.0;"/><line style="stroke:#A80036;stroke-width:1.0;stroke-dasharray:2.0,2.0;" x1="54" x2="335" y1="256.9609" y2="256.9609"/><text fill="#000000" font-family="sans-serif" font-size="13" lengthAdjust="spacing" textLength="263" x="66" y="251.895">Retorna o access token e o refresh token</text><path d="M10,278.9609 L221,278.9609 L221,285.9609 L211,295.9609 L10,295.9609 L10,278.9609 " fill="#EEEEEE" style="stroke:#000000;stroke-width:1.0;"/><rect fill="none" height="46.2656" style="stroke:#000000;stroke-width:2.0;" width="372.5" x="10" y="278.9609"/><text fill="#000000" font-family="sans-serif" font-size="13" font-weight="bold" lengthAdjust="spacing" textLength="166" x="25" y="292.0278">Refresh token inválido</text><polygon fill="#A80036" points="60,313.2266,50,317.2266,60,321.2266,56,317.2266" style="stroke:#A80036;stroke-width:1.0;"/><line style="stroke:#A80036;stroke-width:1.0;stroke-dasharray:2.0,2.0;" x1="54" x2="335" y1="317.2266" y2="317.2266"/><text fill="#000000" font-family="sans-serif" font-size="13" lengthAdjust="spacing" textLength="185" x="66" y="312.1606">Exibe o erro no refresh token</text><!--MD5=[219a822c4047f060bab36d5d7d28bc8b]
@startuml USU05

actor Usuário
participant Sistema

Usuário -> Sistema: Envia o refresh token

Sistema -> Sistema: Realiza a validação do refresh token

group Refresh token válido
  Sistema -> Sistema: Realiza a autenticação do usuário
  Sistema - -> Usuário: Retorna o access token e o refresh token
end

group Refresh token inválido
  Sistema - -> Usuário: Exibe o erro no refresh token
end

@enduml

PlantUML version 1.2021.16(Wed Dec 08 14:25:22 BRT 2021)
(GPL source distribution)
Java Runtime: OpenJDK Runtime Environment
JVM: OpenJDK 64-Bit Server VM
Default Encoding: UTF-8
Language: en
Country: null
--></g></svg>