<?xml version="1.0" encoding="UTF-8" standalone="no"?><svg xmlns="http://www.w3.org/2000/svg" xmlns:xlink="http://www.w3.org/1999/xlink" contentScriptType="application/ecmascript" contentStyleType="text/css" height="560px" preserveAspectRatio="none" style="width:792px;height:560px;background:#FFFFFF;" version="1.1" viewBox="0 0 792 560" width="792px" zoomAndPan="magnify"><defs><filter height="300%" id="f1sij85c6w7c16" width="300%" x="-1" y="-1"><feGaussianBlur result="blurOut" stdDeviation="2.0"/><feColorMatrix in="blurOut" result="blurOut2" type="matrix" values="0 0 0 0 0 0 0 0 0 0 0 0 0 0 0 0 0 0 .4 0"/><feOffset dx="4.0" dy="4.0" in="blurOut2" result="blurOut3"/><feBlend in="SourceGraphic" in2="blurOut3" mode="normal"/></filter></defs><g><rect fill="#FFFFFF" filter="url(#f1sij85c6w7c16)" height="46.2656" style="stroke:#000000;stroke-width:2.0;" width="533.5" x="20" y="176.5625"/><rect fill="#FFFFFF" filter="url(#f1sij85c6w7c16)" height="221.9297" style="stroke:#000000;stroke-width:2.0;" width="768" x="10" y="236.8281"/><rect fill="#FFFFFF" filter="url(#f1sij85c6w7c16)" height="88.3984" style="stroke:#000000;stroke-width:2.0;" width="683" x="20" y="303.0938"/><rect fill="#FFFFFF" filter="url(#f1sij85c6w7c16)" height="46.2656" style="stroke:#000000;stroke-width:2.0;" width="533.5" x="20" y="405.4922"/><line style="stroke:#A80036;stroke-width:1.0;stroke-dasharray:5.0,5.0;" x1="59" x2="59" y1="88.2969" y2="475.7578"/><line style="stroke:#A80036;stroke-width:1.0;stroke-dasharray:5.0,5.0;" x1="506.5" x2="506.5" y1="88.2969" y2="475.7578"/><text fill="#000000" font-family="sans-serif" font-size="14" lengthAdjust="spacing" textLength="52" x="30" y="84.9951">Usuário</text><ellipse cx="59" cy="15" fill="#FEFECE" filter="url(#f1sij85c6w7c16)" rx="8" ry="8" style="stroke:#A80036;stroke-width:2.0;"/><path d="M59,23 L59,50 M46,31 L72,31 M59,50 L46,65 M59,50 L72,65 " fill="none" filter="url(#f1sij85c6w7c16)" style="stroke:#A80036;stroke-width:2.0;"/><text fill="#000000" font-family="sans-serif" font-size="14" lengthAdjust="spacing" textLength="52" x="30" y="487.7529">Usuário</text><ellipse cx="59" cy="501.0547" fill="#FEFECE" filter="url(#f1sij85c6w7c16)" rx="8" ry="8" style="stroke:#A80036;stroke-width:2.0;"/><path d="M59,509.0547 L59,536.0547 M46,517.0547 L72,517.0547 M59,536.0547 L46,551.0547 M59,536.0547 L72,551.0547 " fill="none" filter="url(#f1sij85c6w7c16)" style="stroke:#A80036;stroke-width:2.0;"/><rect fill="#FEFECE" filter="url(#f1sij85c6w7c16)" height="30.2969" style="stroke:#A80036;stroke-width:1.5;" width="69" x="470.5" y="53"/><text fill="#000000" font-family="sans-serif" font-size="14" lengthAdjust="spacing" textLength="55" x="477.5" y="72.9951">Sistema</text><rect fill="#FEFECE" filter="url(#f1sij85c6w7c16)" height="30.2969" style="stroke:#A80036;stroke-width:1.5;" width="69" x="470.5" y="474.7578"/><text fill="#000000" font-family="sans-serif" font-size="14" lengthAdjust="spacing" textLength="55" x="477.5" y="494.7529">Sistema</text><polygon fill="#A80036" points="495,115.4297,505,119.4297,495,123.4297,499,119.4297" style="stroke:#A80036;stroke-width:1.0;"/><line style="stroke:#A80036;stroke-width:1.0;" x1="59" x2="501" y1="119.4297" y2="119.4297"/><text fill="#000000" font-family="sans-serif" font-size="13" lengthAdjust="spacing" textLength="249" x="66" y="114.3638">Envia os dados para cadastro da conta</text><line style="stroke:#A80036;stroke-width:1.0;" x1="507" x2="549" y1="148.5625" y2="148.5625"/><line style="stroke:#A80036;stroke-width:1.0;" x1="549" x2="549" y1="148.5625" y2="161.5625"/><line style="stroke:#A80036;stroke-width:1.0;" x1="508" x2="549" y1="161.5625" y2="161.5625"/><polygon fill="#A80036" points="518,157.5625,508,161.5625,518,165.5625,514,161.5625" style="stroke:#A80036;stroke-width:1.0;"/><text fill="#000000" font-family="sans-serif" font-size="13" lengthAdjust="spacing" textLength="241" x="514" y="143.4966">Verifica se o usuário está autenticado</text><path d="M20,176.5625 L282,176.5625 L282,183.5625 L272,193.5625 L20,193.5625 L20,176.5625 " fill="#EEEEEE" style="stroke:#000000;stroke-width:1.0;"/><rect fill="none" height="46.2656" style="stroke:#000000;stroke-width:2.0;" width="533.5" x="20" y="176.5625"/><text fill="#000000" font-family="sans-serif" font-size="13" font-weight="bold" lengthAdjust="spacing" textLength="217" x="35" y="189.6294">Usuário não está autenticado</text><polygon fill="#A80036" points="70,210.8281,60,214.8281,70,218.8281,66,214.8281" style="stroke:#A80036;stroke-width:1.0;"/><line style="stroke:#A80036;stroke-width:1.0;" x1="64" x2="506" y1="214.8281" y2="214.8281"/><text fill="#000000" font-family="sans-serif" font-size="13" lengthAdjust="spacing" textLength="424" x="76" y="209.7622">Exibe um erro informando que o usuário precisa estar autenticado</text><path d="M10,236.8281 L240,236.8281 L240,243.8281 L230,253.8281 L10,253.8281 L10,236.8281 " fill="#EEEEEE" style="stroke:#000000;stroke-width:1.0;"/><rect fill="none" height="221.9297" style="stroke:#000000;stroke-width:2.0;" width="768" x="10" y="236.8281"/><text fill="#000000" font-family="sans-serif" font-size="13" font-weight="bold" lengthAdjust="spacing" textLength="185" x="25" y="249.895">Usuário está autenticado</text><line style="stroke:#A80036;stroke-width:1.0;" x1="507" x2="549" y1="275.0938" y2="275.0938"/><line style="stroke:#A80036;stroke-width:1.0;" x1="549" x2="549" y1="275.0938" y2="288.0938"/><line style="stroke:#A80036;stroke-width:1.0;" x1="508" x2="549" y1="288.0938" y2="288.0938"/><polygon fill="#A80036" points="518,284.0938,508,288.0938,518,292.0938,514,288.0938" style="stroke:#A80036;stroke-width:1.0;"/><text fill="#000000" font-family="sans-serif" font-size="13" lengthAdjust="spacing" textLength="252" x="514" y="270.0278">Realiza a validação dos dados enviados</text><path d="M20,303.0938 L169,303.0938 L169,310.0938 L159,320.0938 L20,320.0938 L20,303.0938 " fill="#EEEEEE" style="stroke:#000000;stroke-width:1.0;"/><rect fill="none" height="88.3984" style="stroke:#000000;stroke-width:2.0;" width="683" x="20" y="303.0938"/><text fill="#000000" font-family="sans-serif" font-size="13" font-weight="bold" lengthAdjust="spacing" textLength="104" x="35" y="316.1606">Dados válidos</text><line style="stroke:#A80036;stroke-width:1.0;" x1="507" x2="549" y1="341.3594" y2="341.3594"/><line style="stroke:#A80036;stroke-width:1.0;" x1="549" x2="549" y1="341.3594" y2="354.3594"/><line style="stroke:#A80036;stroke-width:1.0;" x1="508" x2="549" y1="354.3594" y2="354.3594"/><polygon fill="#A80036" points="518,350.3594,508,354.3594,518,358.3594,514,354.3594" style="stroke:#A80036;stroke-width:1.0;"/><text fill="#000000" font-family="sans-serif" font-size="13" lengthAdjust="spacing" textLength="177" x="514" y="336.2935">Realiza o cadastro da conta</text><polygon fill="#A80036" points="70,379.4922,60,383.4922,70,387.4922,66,383.4922" style="stroke:#A80036;stroke-width:1.0;"/><line style="stroke:#A80036;stroke-width:1.0;stroke-dasharray:2.0,2.0;" x1="64" x2="506" y1="383.4922" y2="383.4922"/><text fill="#000000" font-family="sans-serif" font-size="13" lengthAdjust="spacing" textLength="195" x="76" y="378.4263">Retorna os dados cadastrados</text><path d="M20,405.4922 L182,405.4922 L182,412.4922 L172,422.4922 L20,422.4922 L20,405.4922 " fill="#EEEEEE" style="stroke:#000000;stroke-width:1.0;"/><rect fill="none" height="46.2656" style="stroke:#000000;stroke-width:2.0;" width="533.5" x="20" y="405.4922"/><text fill="#000000" font-family="sans-serif" font-size="13" font-weight="bold" lengthAdjust="spacing" textLength="117" x="35" y="418.5591">Dados inválidos</text><polygon fill="#A80036" points="70,439.7578,60,443.7578,70,447.7578,66,443.7578" style="stroke:#A80036;stroke-width:1.0;"/><line style="stroke:#A80036;stroke-width:1.0;stroke-dasharray:2.0,2.0;" x1="64" x2="506" y1="443.7578" y2="443.7578"/><text fill="#000000" font-family="sans-serif" font-size="13" lengthAdjust="spacing" textLength="217" x="76" y="438.6919">Exibe a lista de erros de validação</text><!--MD5=[46c8cb854e181d95a0357b078ed8736a]
@startuml CON01

actor Usuário
participant Sistema

Usuário -> Sistema: Envia os dados para cadastro da conta

Sistema -> Sistema: Verifica se o usuário está autenticado

group Usuário não está autenticado
  Sistema -> Usuário: Exibe um erro informando que o usuário precisa estar autenticado
end

group Usuário está autenticado
  Sistema -> Sistema: Realiza a validação dos dados enviados

  group Dados válidos
    Sistema -> Sistema: Realiza o cadastro da conta
    Sistema - -> Usuário: Retorna os dados cadastrados
  end

  group Dados inválidos
    Sistema - -> Usuário: Exibe a lista de erros de validação
  end
end

@enduml

PlantUML version 1.2021.16(Wed Dec 08 14:25:22 BRT 2021)
(GPL source distribution)
Java Runtime: OpenJDK Runtime Environment
JVM: OpenJDK 64-Bit Server VM
Default Encoding: UTF-8
Language: en
Country: null
--></g></svg>