<?xml version="1.0" encoding="UTF-8" standalone="no"?><svg xmlns="http://www.w3.org/2000/svg" xmlns:xlink="http://www.w3.org/1999/xlink" contentScriptType="application/ecmascript" contentStyleType="text/css" height="693px" preserveAspectRatio="none" style="width:928px;height:693px;background:#FFFFFF;" version="1.1" viewBox="0 0 928 693" width="928px" zoomAndPan="magnify"><defs><filter height="300%" id="f7by34g8m38xp" width="300%" x="-1" y="-1"><feGaussianBlur result="blurOut" stdDeviation="2.0"/><feColorMatrix in="blurOut" result="blurOut2" type="matrix" values="0 0 0 0 0 0 0 0 0 0 0 0 0 0 0 0 0 0 .4 0"/><feOffset dx="4.0" dy="4.0" in="blurOut2" result="blurOut3"/><feBlend in="SourceGraphic" in2="blurOut3" mode="normal"/></filter></defs><g><rect fill="#FFFFFF" filter="url(#f7by34g8m38xp)" height="46.2656" style="stroke:#000000;stroke-width:2.0;" width="577.5" x="30" y="176.5625"/><rect fill="#FFFFFF" filter="url(#f7by34g8m38xp)" height="355.4609" style="stroke:#000000;stroke-width:2.0;" width="904" x="10" y="236.8281"/><rect fill="#FFFFFF" filter="url(#f7by34g8m38xp)" height="46.2656" style="stroke:#000000;stroke-width:2.0;" width="577.5" x="30" y="303.0938"/><rect fill="#FFFFFF" filter="url(#f7by34g8m38xp)" height="221.9297" style="stroke:#000000;stroke-width:2.0;" width="884" x="20" y="363.3594"/><rect fill="#FFFFFF" filter="url(#f7by34g8m38xp)" height="46.2656" style="stroke:#000000;stroke-width:2.0;" width="577.5" x="30" y="429.625"/><rect fill="#FFFFFF" filter="url(#f7by34g8m38xp)" height="88.3984" style="stroke:#000000;stroke-width:2.0;" width="755" x="30" y="489.8906"/><line style="stroke:#A80036;stroke-width:1.0;stroke-dasharray:5.0,5.0;" x1="69" x2="69" y1="88.2969" y2="609.2891"/><line style="stroke:#A80036;stroke-width:1.0;stroke-dasharray:5.0,5.0;" x1="560.5" x2="560.5" y1="88.2969" y2="609.2891"/><text fill="#000000" font-family="sans-serif" font-size="14" lengthAdjust="spacing" textLength="52" x="40" y="84.9951">Usuário</text><ellipse cx="69" cy="15" fill="#FEFECE" filter="url(#f7by34g8m38xp)" rx="8" ry="8" style="stroke:#A80036;stroke-width:2.0;"/><path d="M69,23 L69,50 M56,31 L82,31 M69,50 L56,65 M69,50 L82,65 " fill="none" filter="url(#f7by34g8m38xp)" style="stroke:#A80036;stroke-width:2.0;"/><text fill="#000000" font-family="sans-serif" font-size="14" lengthAdjust="spacing" textLength="52" x="40" y="621.2842">Usuário</text><ellipse cx="69" cy="634.5859" fill="#FEFECE" filter="url(#f7by34g8m38xp)" rx="8" ry="8" style="stroke:#A80036;stroke-width:2.0;"/><path d="M69,642.5859 L69,669.5859 M56,650.5859 L82,650.5859 M69,669.5859 L56,684.5859 M69,669.5859 L82,684.5859 " fill="none" filter="url(#f7by34g8m38xp)" style="stroke:#A80036;stroke-width:2.0;"/><rect fill="#FEFECE" filter="url(#f7by34g8m38xp)" height="30.2969" style="stroke:#A80036;stroke-width:1.5;" width="69" x="524.5" y="53"/><text fill="#000000" font-family="sans-serif" font-size="14" lengthAdjust="spacing" textLength="55" x="531.5" y="72.9951">Sistema</text><rect fill="#FEFECE" filter="url(#f7by34g8m38xp)" height="30.2969" style="stroke:#A80036;stroke-width:1.5;" width="69" x="524.5" y="608.2891"/><text fill="#000000" font-family="sans-serif" font-size="14" lengthAdjust="spacing" textLength="55" x="531.5" y="628.2842">Sistema</text><polygon fill="#A80036" points="549,115.4297,559,119.4297,549,123.4297,553,119.4297" style="stroke:#A80036;stroke-width:1.0;"/><line style="stroke:#A80036;stroke-width:1.0;" x1="69" x2="555" y1="119.4297" y2="119.4297"/><text fill="#000000" font-family="sans-serif" font-size="13" lengthAdjust="spacing" textLength="239" x="76" y="114.3638">Solicita a exclusão de uma transação</text><line style="stroke:#A80036;stroke-width:1.0;" x1="561" x2="603" y1="148.5625" y2="148.5625"/><line style="stroke:#A80036;stroke-width:1.0;" x1="603" x2="603" y1="148.5625" y2="161.5625"/><line style="stroke:#A80036;stroke-width:1.0;" x1="562" x2="603" y1="161.5625" y2="161.5625"/><polygon fill="#A80036" points="572,157.5625,562,161.5625,572,165.5625,568,161.5625" style="stroke:#A80036;stroke-width:1.0;"/><text fill="#000000" font-family="sans-serif" font-size="13" lengthAdjust="spacing" textLength="241" x="568" y="143.4966">Verifica se o usuário está autenticado</text><path d="M30,176.5625 L292,176.5625 L292,183.5625 L282,193.5625 L30,193.5625 L30,176.5625 " fill="#EEEEEE" style="stroke:#000000;stroke-width:1.0;"/><rect fill="none" height="46.2656" style="stroke:#000000;stroke-width:2.0;" width="577.5" x="30" y="176.5625"/><text fill="#000000" font-family="sans-serif" font-size="13" font-weight="bold" lengthAdjust="spacing" textLength="217" x="45" y="189.6294">Usuário não está autenticado</text><polygon fill="#A80036" points="80,210.8281,70,214.8281,80,218.8281,76,214.8281" style="stroke:#A80036;stroke-width:1.0;"/><line style="stroke:#A80036;stroke-width:1.0;" x1="74" x2="560" y1="214.8281" y2="214.8281"/><text fill="#000000" font-family="sans-serif" font-size="13" lengthAdjust="spacing" textLength="424" x="86" y="209.7622">Exibe um erro informando que o usuário precisa estar autenticado</text><path d="M10,236.8281 L240,236.8281 L240,243.8281 L230,253.8281 L10,253.8281 L10,236.8281 " fill="#EEEEEE" style="stroke:#000000;stroke-width:1.0;"/><rect fill="none" height="355.4609" style="stroke:#000000;stroke-width:2.0;" width="904" x="10" y="236.8281"/><text fill="#000000" font-family="sans-serif" font-size="13" font-weight="bold" lengthAdjust="spacing" textLength="185" x="25" y="249.895">Usuário está autenticado</text><line style="stroke:#A80036;stroke-width:1.0;" x1="561" x2="603" y1="275.0938" y2="275.0938"/><line style="stroke:#A80036;stroke-width:1.0;" x1="603" x2="603" y1="275.0938" y2="288.0938"/><line style="stroke:#A80036;stroke-width:1.0;" x1="562" x2="603" y1="288.0938" y2="288.0938"/><polygon fill="#A80036" points="572,284.0938,562,288.0938,572,292.0938,568,288.0938" style="stroke:#A80036;stroke-width:1.0;"/><text fill="#000000" font-family="sans-serif" font-size="13" lengthAdjust="spacing" textLength="236" x="568" y="270.0278">Verifica se a transação solicita existe</text><path d="M30,303.0938 L231,303.0938 L231,310.0938 L221,320.0938 L30,320.0938 L30,303.0938 " fill="#EEEEEE" style="stroke:#000000;stroke-width:1.0;"/><rect fill="none" height="46.2656" style="stroke:#000000;stroke-width:2.0;" width="577.5" x="30" y="303.0938"/><text fill="#000000" font-family="sans-serif" font-size="13" font-weight="bold" lengthAdjust="spacing" textLength="156" x="45" y="316.1606">Transação não existe</text><polygon fill="#A80036" points="80,337.3594,70,341.3594,80,345.3594,76,341.3594" style="stroke:#A80036;stroke-width:1.0;"/><line style="stroke:#A80036;stroke-width:1.0;" x1="74" x2="560" y1="341.3594" y2="341.3594"/><text fill="#000000" font-family="sans-serif" font-size="13" lengthAdjust="spacing" textLength="408" x="86" y="336.2935">Exibe um erro informando que a transação solicitada não existe</text><path d="M20,363.3594 L213,363.3594 L213,370.3594 L203,380.3594 L20,380.3594 L20,363.3594 " fill="#EEEEEE" style="stroke:#000000;stroke-width:1.0;"/><rect fill="none" height="221.9297" style="stroke:#000000;stroke-width:2.0;" width="884" x="20" y="363.3594"/><text fill="#000000" font-family="sans-serif" font-size="13" font-weight="bold" lengthAdjust="spacing" textLength="148" x="35" y="376.4263">Transação existente</text><line style="stroke:#A80036;stroke-width:1.0;" x1="561" x2="603" y1="401.625" y2="401.625"/><line style="stroke:#A80036;stroke-width:1.0;" x1="603" x2="603" y1="401.625" y2="414.625"/><line style="stroke:#A80036;stroke-width:1.0;" x1="562" x2="603" y1="414.625" y2="414.625"/><polygon fill="#A80036" points="572,410.625,562,414.625,572,418.625,568,414.625" style="stroke:#A80036;stroke-width:1.0;"/><text fill="#000000" font-family="sans-serif" font-size="13" lengthAdjust="spacing" textLength="324" x="568" y="396.5591">Verifica se o usuário logado é o dono da transação</text><path d="M30,429.625 L376,429.625 L376,436.625 L366,446.625 L30,446.625 L30,429.625 " fill="#EEEEEE" style="stroke:#000000;stroke-width:1.0;"/><rect fill="none" height="46.2656" style="stroke:#000000;stroke-width:2.0;" width="577.5" x="30" y="429.625"/><text fill="#000000" font-family="sans-serif" font-size="13" font-weight="bold" lengthAdjust="spacing" textLength="301" x="45" y="442.6919">Usuário logado não é dono da transação</text><polygon fill="#A80036" points="80,463.8906,70,467.8906,80,471.8906,76,467.8906" style="stroke:#A80036;stroke-width:1.0;"/><line style="stroke:#A80036;stroke-width:1.0;" x1="74" x2="560" y1="467.8906" y2="467.8906"/><text fill="#000000" font-family="sans-serif" font-size="13" lengthAdjust="spacing" textLength="468" x="86" y="462.8247">Exibe um erro informando que o usuário logado não é dono da transação</text><path d="M30,489.8906 L344,489.8906 L344,496.8906 L334,506.8906 L30,506.8906 L30,489.8906 " fill="#EEEEEE" style="stroke:#000000;stroke-width:1.0;"/><rect fill="none" height="88.3984" style="stroke:#000000;stroke-width:2.0;" width="755" x="30" y="489.8906"/><text fill="#000000" font-family="sans-serif" font-size="13" font-weight="bold" lengthAdjust="spacing" textLength="269" x="45" y="502.9575">Usuário logado é dono da transação</text><line style="stroke:#A80036;stroke-width:1.0;" x1="561" x2="603" y1="528.1563" y2="528.1563"/><line style="stroke:#A80036;stroke-width:1.0;" x1="603" x2="603" y1="528.1563" y2="541.1563"/><line style="stroke:#A80036;stroke-width:1.0;" x1="562" x2="603" y1="541.1563" y2="541.1563"/><polygon fill="#A80036" points="572,537.1563,562,541.1563,572,545.1563,568,541.1563" style="stroke:#A80036;stroke-width:1.0;"/><text fill="#000000" font-family="sans-serif" font-size="13" lengthAdjust="spacing" textLength="205" x="568" y="523.0903">Realiza a exclusão da transação</text><polygon fill="#A80036" points="80,566.2891,70,570.2891,80,574.2891,76,570.2891" style="stroke:#A80036;stroke-width:1.0;"/><line style="stroke:#A80036;stroke-width:1.0;" x1="74" x2="560" y1="570.2891" y2="570.2891"/><text fill="#000000" font-family="sans-serif" font-size="13" lengthAdjust="spacing" textLength="404" x="86" y="565.2231">Exibe uma mensagem informando que a transação foi excluida</text><!--MD5=[3926778132c4929a679b7025c556ffd4]
@startuml TRA05

actor Usuário
participant Sistema

Usuário -> Sistema: Solicita a exclusão de uma transação

Sistema -> Sistema: Verifica se o usuário está autenticado

group Usuário não está autenticado
  Sistema -> Usuário: Exibe um erro informando que o usuário precisa estar autenticado
end

group Usuário está autenticado
  Sistema -> Sistema: Verifica se a transação solicita existe
  group Transação não existe
    Sistema -> Usuário: Exibe um erro informando que a transação solicitada não existe
  end

  group Transação existente
    Sistema -> Sistema: Verifica se o usuário logado é o dono da transação

    group Usuário logado não é dono da transação
      Sistema -> Usuário: Exibe um erro informando que o usuário logado não é dono da transação
    end

    group Usuário logado é dono da transação
      Sistema -> Sistema: Realiza a exclusão da transação
      Sistema -> Usuário: Exibe uma mensagem informando que a transação foi excluida
    end
  end
end

@enduml

PlantUML version 1.2021.16(Wed Dec 08 14:25:22 BRT 2021)
(GPL source distribution)
Java Runtime: OpenJDK Runtime Environment
JVM: OpenJDK 64-Bit Server VM
Default Encoding: UTF-8
Language: en
Country: null
--></g></svg>