<?xml version="1.0" encoding="UTF-8" standalone="no"?><svg xmlns="http://www.w3.org/2000/svg" xmlns:xlink="http://www.w3.org/1999/xlink" contentScriptType="application/ecmascript" contentStyleType="text/css" height="426px" preserveAspectRatio="none" style="width:556px;height:426px;background:#FFFFFF;" version="1.1" viewBox="0 0 556 426" width="556px" zoomAndPan="magnify"><defs><filter height="300%" id="fxgu34rebpru1" width="300%" x="-1" y="-1"><feGaussianBlur result="blurOut" stdDeviation="2.0"/><feColorMatrix in="blurOut" result="blurOut2" type="matrix" values="0 0 0 0 0 0 0 0 0 0 0 0 0 0 0 0 0 0 .4 0"/><feOffset dx="4.0" dy="4.0" in="blurOut2" result="blurOut3"/><feBlend in="SourceGraphic" in2="blurOut3" mode="normal"/></filter></defs><g><rect fill="#FFFFFF" filter="url(#fxgu34rebpru1)" height="88.3984" style="stroke:#000000;stroke-width:2.0;" width="487" x="10" y="176.5625"/><rect fill="#FFFFFF" filter="url(#fxgu34rebpru1)" height="46.2656" style="stroke:#000000;stroke-width:2.0;" width="326.5" x="10" y="278.9609"/><line style="stroke:#A80036;stroke-width:1.0;stroke-dasharray:5.0,5.0;" x1="49" x2="49" y1="88.2969" y2="342.2266"/><line style="stroke:#A80036;stroke-width:1.0;stroke-dasharray:5.0,5.0;" x1="289.5" x2="289.5" y1="88.2969" y2="342.2266"/><text fill="#000000" font-family="sans-serif" font-size="14" lengthAdjust="spacing" textLength="52" x="20" y="84.9951">Usuário</text><ellipse cx="49" cy="15" fill="#FEFECE" filter="url(#fxgu34rebpru1)" rx="8" ry="8" style="stroke:#A80036;stroke-width:2.0;"/><path d="M49,23 L49,50 M36,31 L62,31 M49,50 L36,65 M49,50 L62,65 " fill="none" filter="url(#fxgu34rebpru1)" style="stroke:#A80036;stroke-width:2.0;"/><text fill="#000000" font-family="sans-serif" font-size="14" lengthAdjust="spacing" textLength="52" x="20" y="354.2217">Usuário</text><ellipse cx="49" cy="367.5234" fill="#FEFECE" filter="url(#fxgu34rebpru1)" rx="8" ry="8" style="stroke:#A80036;stroke-width:2.0;"/><path d="M49,375.5234 L49,402.5234 M36,383.5234 L62,383.5234 M49,402.5234 L36,417.5234 M49,402.5234 L62,417.5234 " fill="none" filter="url(#fxgu34rebpru1)" style="stroke:#A80036;stroke-width:2.0;"/><rect fill="#FEFECE" filter="url(#fxgu34rebpru1)" height="30.2969" style="stroke:#A80036;stroke-width:1.5;" width="69" x="253.5" y="53"/><text fill="#000000" font-family="sans-serif" font-size="14" lengthAdjust="spacing" textLength="55" x="260.5" y="72.9951">Sistema</text><rect fill="#FEFECE" filter="url(#fxgu34rebpru1)" height="30.2969" style="stroke:#A80036;stroke-width:1.5;" width="69" x="253.5" y="341.2266"/><text fill="#000000" font-family="sans-serif" font-size="14" lengthAdjust="spacing" textLength="55" x="260.5" y="361.2217">Sistema</text><polygon fill="#A80036" points="278,115.4297,288,119.4297,278,123.4297,282,119.4297" style="stroke:#A80036;stroke-width:1.0;"/><line style="stroke:#A80036;stroke-width:1.0;" x1="49" x2="284" y1="119.4297" y2="119.4297"/><text fill="#000000" font-family="sans-serif" font-size="13" lengthAdjust="spacing" textLength="189" x="56" y="114.3638">Envia os dados para cadastro</text><line style="stroke:#A80036;stroke-width:1.0;" x1="290" x2="332" y1="148.5625" y2="148.5625"/><line style="stroke:#A80036;stroke-width:1.0;" x1="332" x2="332" y1="148.5625" y2="161.5625"/><line style="stroke:#A80036;stroke-width:1.0;" x1="291" x2="332" y1="161.5625" y2="161.5625"/><polygon fill="#A80036" points="301,157.5625,291,161.5625,301,165.5625,297,161.5625" style="stroke:#A80036;stroke-width:1.0;"/><text fill="#000000" font-family="sans-serif" font-size="13" lengthAdjust="spacing" textLength="252" x="297" y="143.4966">Realiza a validação dos dados enviados</text><path d="M10,176.5625 L159,176.5625 L159,183.5625 L149,193.5625 L10,193.5625 L10,176.5625 " fill="#EEEEEE" style="stroke:#000000;stroke-width:1.0;"/><rect fill="none" height="88.3984" style="stroke:#000000;stroke-width:2.0;" width="487" x="10" y="176.5625"/><text fill="#000000" font-family="sans-serif" font-size="13" font-weight="bold" lengthAdjust="spacing" textLength="104" x="25" y="189.6294">Dados válidos</text><line style="stroke:#A80036;stroke-width:1.0;" x1="290" x2="332" y1="214.8281" y2="214.8281"/><line style="stroke:#A80036;stroke-width:1.0;" x1="332" x2="332" y1="214.8281" y2="227.8281"/><line style="stroke:#A80036;stroke-width:1.0;" x1="291" x2="332" y1="227.8281" y2="227.8281"/><polygon fill="#A80036" points="301,223.8281,291,227.8281,301,231.8281,297,227.8281" style="stroke:#A80036;stroke-width:1.0;"/><text fill="#000000" font-family="sans-serif" font-size="13" lengthAdjust="spacing" textLength="188" x="297" y="209.7622">Realiza o cadastro do usuário</text><polygon fill="#A80036" points="60,252.9609,50,256.9609,60,260.9609,56,256.9609" style="stroke:#A80036;stroke-width:1.0;"/><line style="stroke:#A80036;stroke-width:1.0;stroke-dasharray:2.0,2.0;" x1="54" x2="289" y1="256.9609" y2="256.9609"/><text fill="#000000" font-family="sans-serif" font-size="13" lengthAdjust="spacing" textLength="195" x="66" y="251.895">Retorna os dados cadastrados</text><path d="M10,278.9609 L172,278.9609 L172,285.9609 L162,295.9609 L10,295.9609 L10,278.9609 " fill="#EEEEEE" style="stroke:#000000;stroke-width:1.0;"/><rect fill="none" height="46.2656" style="stroke:#000000;stroke-width:2.0;" width="326.5" x="10" y="278.9609"/><text fill="#000000" font-family="sans-serif" font-size="13" font-weight="bold" lengthAdjust="spacing" textLength="117" x="25" y="292.0278">Dados inválidos</text><polygon fill="#A80036" points="60,313.2266,50,317.2266,60,321.2266,56,317.2266" style="stroke:#A80036;stroke-width:1.0;"/><line style="stroke:#A80036;stroke-width:1.0;stroke-dasharray:2.0,2.0;" x1="54" x2="289" y1="317.2266" y2="317.2266"/><text fill="#000000" font-family="sans-serif" font-size="13" lengthAdjust="spacing" textLength="217" x="66" y="312.1606">Exibe a lista de erros de validação</text><!--MD5=[20b7671114d02353a4fef82ad66ad397]
@startuml USU01

actor Usuário
participant Sistema

Usuário -> Sistema: Envia os dados para cadastro

Sistema -> Sistema: Realiza a validação dos dados enviados

group Dados válidos
  Sistema -> Sistema: Realiza o cadastro do usuário
  Sistema - -> Usuário: Retorna os dados cadastrados
end

group Dados inválidos
  Sistema - -> Usuário: Exibe a lista de erros de validação
end

@enduml

PlantUML version 1.2021.16(Wed Dec 08 14:25:22 BRT 2021)
(GPL source distribution)
Java Runtime: OpenJDK Runtime Environment
JVM: OpenJDK 64-Bit Server VM
Default Encoding: UTF-8
Language: en
Country: null
--></g></svg>