<?xml version="1.0" encoding="UTF-8" standalone="no"?><svg xmlns="http://www.w3.org/2000/svg" xmlns:xlink="http://www.w3.org/1999/xlink" contentScriptType="application/ecmascript" contentStyleType="text/css" height="651px" preserveAspectRatio="none" style="width:872px;height:651px;background:#FFFFFF;" version="1.1" viewBox="0 0 872 651" width="872px" zoomAndPan="magnify"><defs><filter height="300%" id="fslk1u9rwnufi" width="300%" x="-1" y="-1"><feGaussianBlur result="blurOut" stdDeviation="2.0"/><feColorMatrix in="blurOut" result="blurOut2" type="matrix" values="0 0 0 0 0 0 0 0 0 0 0 0 0 0 0 0 0 0 .4 0"/><feOffset dx="4.0" dy="4.0" in="blurOut2" result="blurOut3"/><feBlend in="SourceGraphic" in2="blurOut3" mode="normal"/></filter></defs><g><rect fill="#FFFFFF" filter="url(#fslk1u9rwnufi)" height="46.2656" style="stroke:#000000;stroke-width:2.0;" width="549.5" x="30" y="176.5625"/><rect fill="#FFFFFF" filter="url(#fslk1u9rwnufi)" height="313.3281" style="stroke:#000000;stroke-width:2.0;" width="848" x="10" y="236.8281"/><rect fill="#FFFFFF" filter="url(#fslk1u9rwnufi)" height="46.2656" style="stroke:#000000;stroke-width:2.0;" width="549.5" x="30" y="303.0938"/><rect fill="#FFFFFF" filter="url(#fslk1u9rwnufi)" height="179.7969" style="stroke:#000000;stroke-width:2.0;" width="828" x="20" y="363.3594"/><rect fill="#FFFFFF" filter="url(#fslk1u9rwnufi)" height="46.2656" style="stroke:#000000;stroke-width:2.0;" width="549.5" x="30" y="429.625"/><rect fill="#FFFFFF" filter="url(#fslk1u9rwnufi)" height="46.2656" style="stroke:#000000;stroke-width:2.0;" width="549.5" x="30" y="489.8906"/><line style="stroke:#A80036;stroke-width:1.0;stroke-dasharray:5.0,5.0;" x1="69" x2="69" y1="88.2969" y2="567.1563"/><line style="stroke:#A80036;stroke-width:1.0;stroke-dasharray:5.0,5.0;" x1="532.5" x2="532.5" y1="88.2969" y2="567.1563"/><text fill="#000000" font-family="sans-serif" font-size="14" lengthAdjust="spacing" textLength="52" x="40" y="84.9951">Usuário</text><ellipse cx="69" cy="15" fill="#FEFECE" filter="url(#fslk1u9rwnufi)" rx="8" ry="8" style="stroke:#A80036;stroke-width:2.0;"/><path d="M69,23 L69,50 M56,31 L82,31 M69,50 L56,65 M69,50 L82,65 " fill="none" filter="url(#fslk1u9rwnufi)" style="stroke:#A80036;stroke-width:2.0;"/><text fill="#000000" font-family="sans-serif" font-size="14" lengthAdjust="spacing" textLength="52" x="40" y="579.1514">Usuário</text><ellipse cx="69" cy="592.4531" fill="#FEFECE" filter="url(#fslk1u9rwnufi)" rx="8" ry="8" style="stroke:#A80036;stroke-width:2.0;"/><path d="M69,600.4531 L69,627.4531 M56,608.4531 L82,608.4531 M69,627.4531 L56,642.4531 M69,627.4531 L82,642.4531 " fill="none" filter="url(#fslk1u9rwnufi)" style="stroke:#A80036;stroke-width:2.0;"/><rect fill="#FEFECE" filter="url(#fslk1u9rwnufi)" height="30.2969" style="stroke:#A80036;stroke-width:1.5;" width="69" x="496.5" y="53"/><text fill="#000000" font-family="sans-serif" font-size="14" lengthAdjust="spacing" textLength="55" x="503.5" y="72.9951">Sistema</text><rect fill="#FEFECE" filter="url(#fslk1u9rwnufi)" height="30.2969" style="stroke:#A80036;stroke-width:1.5;" width="69" x="496.5" y="566.1563"/><text fill="#000000" font-family="sans-serif" font-size="14" lengthAdjust="spacing" textLength="55" x="503.5" y="586.1514">Sistema</text><polygon fill="#A80036" points="521,115.4297,531,119.4297,521,123.4297,525,119.4297" style="stroke:#A80036;stroke-width:1.0;"/><line style="stroke:#A80036;stroke-width:1.0;" x1="69" x2="527" y1="119.4297" y2="119.4297"/><text fill="#000000" font-family="sans-serif" font-size="13" lengthAdjust="spacing" textLength="293" x="76" y="114.3638">Solicita a exibição dos detalhes de uma conta</text><line style="stroke:#A80036;stroke-width:1.0;" x1="533" x2="575" y1="148.5625" y2="148.5625"/><line style="stroke:#A80036;stroke-width:1.0;" x1="575" x2="575" y1="148.5625" y2="161.5625"/><line style="stroke:#A80036;stroke-width:1.0;" x1="534" x2="575" y1="161.5625" y2="161.5625"/><polygon fill="#A80036" points="544,157.5625,534,161.5625,544,165.5625,540,161.5625" style="stroke:#A80036;stroke-width:1.0;"/><text fill="#000000" font-family="sans-serif" font-size="13" lengthAdjust="spacing" textLength="241" x="540" y="143.4966">Verifica se o usuário está autenticado</text><path d="M30,176.5625 L292,176.5625 L292,183.5625 L282,193.5625 L30,193.5625 L30,176.5625 " fill="#EEEEEE" style="stroke:#000000;stroke-width:1.0;"/><rect fill="none" height="46.2656" style="stroke:#000000;stroke-width:2.0;" width="549.5" x="30" y="176.5625"/><text fill="#000000" font-family="sans-serif" font-size="13" font-weight="bold" lengthAdjust="spacing" textLength="217" x="45" y="189.6294">Usuário não está autenticado</text><polygon fill="#A80036" points="80,210.8281,70,214.8281,80,218.8281,76,214.8281" style="stroke:#A80036;stroke-width:1.0;"/><line style="stroke:#A80036;stroke-width:1.0;" x1="74" x2="532" y1="214.8281" y2="214.8281"/><text fill="#000000" font-family="sans-serif" font-size="13" lengthAdjust="spacing" textLength="424" x="86" y="209.7622">Exibe um erro informando que o usuário precisa estar autenticado</text><path d="M10,236.8281 L240,236.8281 L240,243.8281 L230,253.8281 L10,253.8281 L10,236.8281 " fill="#EEEEEE" style="stroke:#000000;stroke-width:1.0;"/><rect fill="none" height="313.3281" style="stroke:#000000;stroke-width:2.0;" width="848" x="10" y="236.8281"/><text fill="#000000" font-family="sans-serif" font-size="13" font-weight="bold" lengthAdjust="spacing" textLength="185" x="25" y="249.895">Usuário está autenticado</text><line style="stroke:#A80036;stroke-width:1.0;" x1="533" x2="575" y1="275.0938" y2="275.0938"/><line style="stroke:#A80036;stroke-width:1.0;" x1="575" x2="575" y1="275.0938" y2="288.0938"/><line style="stroke:#A80036;stroke-width:1.0;" x1="534" x2="575" y1="288.0938" y2="288.0938"/><polygon fill="#A80036" points="544,284.0938,534,288.0938,544,292.0938,540,288.0938" style="stroke:#A80036;stroke-width:1.0;"/><text fill="#000000" font-family="sans-serif" font-size="13" lengthAdjust="spacing" textLength="208" x="540" y="270.0278">Verifica se a conta solicita existe</text><path d="M30,303.0938 L199,303.0938 L199,310.0938 L189,320.0938 L30,320.0938 L30,303.0938 " fill="#EEEEEE" style="stroke:#000000;stroke-width:1.0;"/><rect fill="none" height="46.2656" style="stroke:#000000;stroke-width:2.0;" width="549.5" x="30" y="303.0938"/><text fill="#000000" font-family="sans-serif" font-size="13" font-weight="bold" lengthAdjust="spacing" textLength="124" x="45" y="316.1606">Conta não existe</text><polygon fill="#A80036" points="80,337.3594,70,341.3594,80,345.3594,76,341.3594" style="stroke:#A80036;stroke-width:1.0;"/><line style="stroke:#A80036;stroke-width:1.0;" x1="74" x2="532" y1="341.3594" y2="341.3594"/><text fill="#000000" font-family="sans-serif" font-size="13" lengthAdjust="spacing" textLength="380" x="86" y="336.2935">Exibe um erro informando que a conta solicitada não existe</text><path d="M20,363.3594 L181,363.3594 L181,370.3594 L171,380.3594 L20,380.3594 L20,363.3594 " fill="#EEEEEE" style="stroke:#000000;stroke-width:1.0;"/><rect fill="none" height="179.7969" style="stroke:#000000;stroke-width:2.0;" width="828" x="20" y="363.3594"/><text fill="#000000" font-family="sans-serif" font-size="13" font-weight="bold" lengthAdjust="spacing" textLength="116" x="35" y="376.4263">Conta existente</text><line style="stroke:#A80036;stroke-width:1.0;" x1="533" x2="575" y1="401.625" y2="401.625"/><line style="stroke:#A80036;stroke-width:1.0;" x1="575" x2="575" y1="401.625" y2="414.625"/><line style="stroke:#A80036;stroke-width:1.0;" x1="534" x2="575" y1="414.625" y2="414.625"/><polygon fill="#A80036" points="544,410.625,534,414.625,544,418.625,540,414.625" style="stroke:#A80036;stroke-width:1.0;"/><text fill="#000000" font-family="sans-serif" font-size="13" lengthAdjust="spacing" textLength="296" x="540" y="396.5591">Verifica se o usuário logado é o dono da conta</text><path d="M30,429.625 L312,429.625 L312,436.625 L302,446.625 L30,446.625 L30,429.625 " fill="#EEEEEE" style="stroke:#000000;stroke-width:1.0;"/><rect fill="none" height="46.2656" style="stroke:#000000;stroke-width:2.0;" width="549.5" x="30" y="429.625"/><text fill="#000000" font-family="sans-serif" font-size="13" font-weight="bold" lengthAdjust="spacing" textLength="237" x="45" y="442.6919">Usuário logado é dono da conta</text><polygon fill="#A80036" points="80,463.8906,70,467.8906,80,471.8906,76,467.8906" style="stroke:#A80036;stroke-width:1.0;"/><line style="stroke:#A80036;stroke-width:1.0;" x1="74" x2="532" y1="467.8906" y2="467.8906"/><text fill="#000000" font-family="sans-serif" font-size="13" lengthAdjust="spacing" textLength="236" x="86" y="462.8247">Exibe os detalhes da conta solicitada</text><path d="M30,489.8906 L344,489.8906 L344,496.8906 L334,506.8906 L30,506.8906 L30,489.8906 " fill="#EEEEEE" style="stroke:#000000;stroke-width:1.0;"/><rect fill="none" height="46.2656" style="stroke:#000000;stroke-width:2.0;" width="549.5" x="30" y="489.8906"/><text fill="#000000" font-family="sans-serif" font-size="13" font-weight="bold" lengthAdjust="spacing" textLength="269" x="45" y="502.9575">Usuário logado não é dono da conta</text><polygon fill="#A80036" points="80,524.1563,70,528.1563,80,532.1563,76,528.1563" style="stroke:#A80036;stroke-width:1.0;"/><line style="stroke:#A80036;stroke-width:1.0;" x1="74" x2="532" y1="528.1563" y2="528.1563"/><text fill="#000000" font-family="sans-serif" font-size="13" lengthAdjust="spacing" textLength="440" x="86" y="523.0903">Exibe um erro informando que o usuário logado não é dono da conta</text><!--MD5=[673102f7156e14d2d9b8e309939d3699]
@startuml CON03

actor Usuário
participant Sistema

Usuário -> Sistema: Solicita a exibição dos detalhes de uma conta

Sistema -> Sistema: Verifica se o usuário está autenticado

group Usuário não está autenticado
  Sistema -> Usuário: Exibe um erro informando que o usuário precisa estar autenticado
end

group Usuário está autenticado
  Sistema -> Sistema: Verifica se a conta solicita existe
  group Conta não existe
    Sistema -> Usuário: Exibe um erro informando que a conta solicitada não existe
  end

  group Conta existente
    Sistema -> Sistema: Verifica se o usuário logado é o dono da conta

    group Usuário logado é dono da conta
      Sistema -> Usuário: Exibe os detalhes da conta solicitada
    end

    group Usuário logado não é dono da conta
      Sistema -> Usuário: Exibe um erro informando que o usuário logado não é dono da conta
    end
  end
end

@enduml

PlantUML version 1.2021.16(Wed Dec 08 14:25:22 BRT 2021)
(GPL source distribution)
Java Runtime: OpenJDK Runtime Environment
JVM: OpenJDK 64-Bit Server VM
Default Encoding: UTF-8
Language: en
Country: null
--></g></svg>