<?xml version="1.0" encoding="UTF-8" standalone="no"?><svg xmlns="http://www.w3.org/2000/svg" xmlns:xlink="http://www.w3.org/1999/xlink" contentScriptType="application/ecmascript" contentStyleType="text/css" height="960px" preserveAspectRatio="none" style="width:1380px;height:960px;background:#FFFFFF;" version="1.1" viewBox="0 0 1380 960" width="1380px" zoomAndPan="magnify"><defs><filter height="300%" id="f2emd0db52ppf" width="300%" x="-1" y="-1"><feGaussianBlur result="blurOut" stdDeviation="2.0"/><feColorMatrix in="blurOut" result="blurOut2" type="matrix" values="0 0 0 0 0 0 0 0 0 0 0 0 0 0 0 0 0 0 .4 0"/><feOffset dx="4.0" dy="4.0" in="blurOut2" result="blurOut3"/><feBlend in="SourceGraphic" in2="blurOut3" mode="normal"/></filter></defs><g><rect fill="#FFFFFF" filter="url(#f2emd0db52ppf)" height="46.2656" style="stroke:#000000;stroke-width:2.0;" width="785.5" x="50" y="176.5625"/><rect fill="#FFFFFF" filter="url(#f2emd0db52ppf)" height="622.5234" style="stroke:#000000;stroke-width:2.0;" width="1356" x="10" y="236.8281"/><rect fill="#FFFFFF" filter="url(#f2emd0db52ppf)" height="46.2656" style="stroke:#000000;stroke-width:2.0;" width="785.5" x="50" y="303.0938"/><rect fill="#FFFFFF" filter="url(#f2emd0db52ppf)" height="488.9922" style="stroke:#000000;stroke-width:2.0;" width="1336" x="20" y="363.3594"/><rect fill="#FFFFFF" filter="url(#f2emd0db52ppf)" height="46.2656" style="stroke:#000000;stroke-width:2.0;" width="785.5" x="50" y="429.625"/><rect fill="#FFFFFF" filter="url(#f2emd0db52ppf)" height="355.4609" style="stroke:#000000;stroke-width:2.0;" width="1316" x="30" y="489.8906"/><rect fill="#FFFFFF" filter="url(#f2emd0db52ppf)" height="46.2656" style="stroke:#000000;stroke-width:2.0;" width="785.5" x="50" y="556.1563"/><rect fill="#FFFFFF" filter="url(#f2emd0db52ppf)" height="221.9297" style="stroke:#000000;stroke-width:2.0;" width="1020" x="40" y="616.4219"/><rect fill="#FFFFFF" filter="url(#f2emd0db52ppf)" height="46.2656" style="stroke:#000000;stroke-width:2.0;" width="785.5" x="50" y="682.6875"/><rect fill="#FFFFFF" filter="url(#f2emd0db52ppf)" height="88.3984" style="stroke:#000000;stroke-width:2.0;" width="980" x="50" y="742.9531"/><line style="stroke:#A80036;stroke-width:1.0;stroke-dasharray:5.0,5.0;" x1="89" x2="89" y1="88.2969" y2="876.3516"/><line style="stroke:#A80036;stroke-width:1.0;stroke-dasharray:5.0,5.0;" x1="788.5" x2="788.5" y1="88.2969" y2="876.3516"/><text fill="#000000" font-family="sans-serif" font-size="14" lengthAdjust="spacing" textLength="52" x="60" y="84.9951">Usuário</text><ellipse cx="89" cy="15" fill="#FEFECE" filter="url(#f2emd0db52ppf)" rx="8" ry="8" style="stroke:#A80036;stroke-width:2.0;"/><path d="M89,23 L89,50 M76,31 L102,31 M89,50 L76,65 M89,50 L102,65 " fill="none" filter="url(#f2emd0db52ppf)" style="stroke:#A80036;stroke-width:2.0;"/><text fill="#000000" font-family="sans-serif" font-size="14" lengthAdjust="spacing" textLength="52" x="60" y="888.3467">Usuário</text><ellipse cx="89" cy="901.6484" fill="#FEFECE" filter="url(#f2emd0db52ppf)" rx="8" ry="8" style="stroke:#A80036;stroke-width:2.0;"/><path d="M89,909.6484 L89,936.6484 M76,917.6484 L102,917.6484 M89,936.6484 L76,951.6484 M89,936.6484 L102,951.6484 " fill="none" filter="url(#f2emd0db52ppf)" style="stroke:#A80036;stroke-width:2.0;"/><rect fill="#FEFECE" filter="url(#f2emd0db52ppf)" height="30.2969" style="stroke:#A80036;stroke-width:1.5;" width="69" x="752.5" y="53"/><text fill="#000000" font-family="sans-serif" font-size="14" lengthAdjust="spacing" textLength="55" x="759.5" y="72.9951">Sistema</text><rect fill="#FEFECE" filter="url(#f2emd0db52ppf)" height="30.2969" style="stroke:#A80036;stroke-width:1.5;" width="69" x="752.5" y="875.3516"/><text fill="#000000" font-family="sans-serif" font-size="14" lengthAdjust="spacing" textLength="55" x="759.5" y="895.3467">Sistema</text><polygon fill="#A80036" points="777,115.4297,787,119.4297,777,123.4297,781,119.4297" style="stroke:#A80036;stroke-width:1.0;"/><line style="stroke:#A80036;stroke-width:1.0;" x1="89" x2="783" y1="119.4297" y2="119.4297"/><text fill="#000000" font-family="sans-serif" font-size="13" lengthAdjust="spacing" textLength="294" x="96" y="114.3638">Envia os dados para atualização da transação</text><line style="stroke:#A80036;stroke-width:1.0;" x1="789" x2="831" y1="148.5625" y2="148.5625"/><line style="stroke:#A80036;stroke-width:1.0;" x1="831" x2="831" y1="148.5625" y2="161.5625"/><line style="stroke:#A80036;stroke-width:1.0;" x1="790" x2="831" y1="161.5625" y2="161.5625"/><polygon fill="#A80036" points="800,157.5625,790,161.5625,800,165.5625,796,161.5625" style="stroke:#A80036;stroke-width:1.0;"/><text fill="#000000" font-family="sans-serif" font-size="13" lengthAdjust="spacing" textLength="241" x="796" y="143.4966">Verifica se o usuário está autenticado</text><path d="M50,176.5625 L312,176.5625 L312,183.5625 L302,193.5625 L50,193.5625 L50,176.5625 " fill="#EEEEEE" style="stroke:#000000;stroke-width:1.0;"/><rect fill="none" height="46.2656" style="stroke:#000000;stroke-width:2.0;" width="785.5" x="50" y="176.5625"/><text fill="#000000" font-family="sans-serif" font-size="13" font-weight="bold" lengthAdjust="spacing" textLength="217" x="65" y="189.6294">Usuário não está autenticado</text><polygon fill="#A80036" points="100,210.8281,90,214.8281,100,218.8281,96,214.8281" style="stroke:#A80036;stroke-width:1.0;"/><line style="stroke:#A80036;stroke-width:1.0;" x1="94" x2="788" y1="214.8281" y2="214.8281"/><text fill="#000000" font-family="sans-serif" font-size="13" lengthAdjust="spacing" textLength="424" x="106" y="209.7622">Exibe um erro informando que o usuário precisa estar autenticado</text><path d="M10,236.8281 L240,236.8281 L240,243.8281 L230,253.8281 L10,253.8281 L10,236.8281 " fill="#EEEEEE" style="stroke:#000000;stroke-width:1.0;"/><rect fill="none" height="622.5234" style="stroke:#000000;stroke-width:2.0;" width="1356" x="10" y="236.8281"/><text fill="#000000" font-family="sans-serif" font-size="13" font-weight="bold" lengthAdjust="spacing" textLength="185" x="25" y="249.895">Usuário está autenticado</text><line style="stroke:#A80036;stroke-width:1.0;" x1="789" x2="831" y1="275.0938" y2="275.0938"/><line style="stroke:#A80036;stroke-width:1.0;" x1="831" x2="831" y1="275.0938" y2="288.0938"/><line style="stroke:#A80036;stroke-width:1.0;" x1="790" x2="831" y1="288.0938" y2="288.0938"/><polygon fill="#A80036" points="800,284.0938,790,288.0938,800,292.0938,796,288.0938" style="stroke:#A80036;stroke-width:1.0;"/><text fill="#000000" font-family="sans-serif" font-size="13" lengthAdjust="spacing" textLength="252" x="796" y="270.0278">Verifica se a transação solicitada existe</text><path d="M50,303.0938 L251,303.0938 L251,310.0938 L241,320.0938 L50,320.0938 L50,303.0938 " fill="#EEEEEE" style="stroke:#000000;stroke-width:1.0;"/><rect fill="none" height="46.2656" style="stroke:#000000;stroke-width:2.0;" width="785.5" x="50" y="303.0938"/><text fill="#000000" font-family="sans-serif" font-size="13" font-weight="bold" lengthAdjust="spacing" textLength="156" x="65" y="316.1606">Transação não existe</text><polygon fill="#A80036" points="100,337.3594,90,341.3594,100,345.3594,96,341.3594" style="stroke:#A80036;stroke-width:1.0;"/><line style="stroke:#A80036;stroke-width:1.0;" x1="94" x2="788" y1="341.3594" y2="341.3594"/><text fill="#000000" font-family="sans-serif" font-size="13" lengthAdjust="spacing" textLength="408" x="106" y="336.2935">Exibe um erro informando que a transação solicitada não existe</text><path d="M20,363.3594 L213,363.3594 L213,370.3594 L203,380.3594 L20,380.3594 L20,363.3594 " fill="#EEEEEE" style="stroke:#000000;stroke-width:1.0;"/><rect fill="none" height="488.9922" style="stroke:#000000;stroke-width:2.0;" width="1336" x="20" y="363.3594"/><text fill="#000000" font-family="sans-serif" font-size="13" font-weight="bold" lengthAdjust="spacing" textLength="148" x="35" y="376.4263">Transação existente</text><line style="stroke:#A80036;stroke-width:1.0;" x1="789" x2="831" y1="401.625" y2="401.625"/><line style="stroke:#A80036;stroke-width:1.0;" x1="831" x2="831" y1="401.625" y2="414.625"/><line style="stroke:#A80036;stroke-width:1.0;" x1="790" x2="831" y1="414.625" y2="414.625"/><polygon fill="#A80036" points="800,410.625,790,414.625,800,418.625,796,414.625" style="stroke:#A80036;stroke-width:1.0;"/><text fill="#000000" font-family="sans-serif" font-size="13" lengthAdjust="spacing" textLength="324" x="796" y="396.5591">Verifica se o usuário logado é o dono da transação</text><path d="M50,429.625 L396,429.625 L396,436.625 L386,446.625 L50,446.625 L50,429.625 " fill="#EEEEEE" style="stroke:#000000;stroke-width:1.0;"/><rect fill="none" height="46.2656" style="stroke:#000000;stroke-width:2.0;" width="785.5" x="50" y="429.625"/><text fill="#000000" font-family="sans-serif" font-size="13" font-weight="bold" lengthAdjust="spacing" textLength="301" x="65" y="442.6919">Usuário logado não é dono da transação</text><polygon fill="#A80036" points="100,463.8906,90,467.8906,100,471.8906,96,467.8906" style="stroke:#A80036;stroke-width:1.0;"/><line style="stroke:#A80036;stroke-width:1.0;" x1="94" x2="788" y1="467.8906" y2="467.8906"/><text fill="#000000" font-family="sans-serif" font-size="13" lengthAdjust="spacing" textLength="468" x="106" y="462.8247">Exibe um erro informando que o usuário logado não é dono da transação</text><path d="M30,489.8906 L344,489.8906 L344,496.8906 L334,506.8906 L30,506.8906 L30,489.8906 " fill="#EEEEEE" style="stroke:#000000;stroke-width:1.0;"/><rect fill="none" height="355.4609" style="stroke:#000000;stroke-width:2.0;" width="1316" x="30" y="489.8906"/><text fill="#000000" font-family="sans-serif" font-size="13" font-weight="bold" lengthAdjust="spacing" textLength="269" x="45" y="502.9575">Usuário logado é dono da transação</text><line style="stroke:#A80036;stroke-width:1.0;" x1="789" x2="831" y1="528.1563" y2="528.1563"/><line style="stroke:#A80036;stroke-width:1.0;" x1="831" x2="831" y1="528.1563" y2="541.1563"/><line style="stroke:#A80036;stroke-width:1.0;" x1="790" x2="831" y1="541.1563" y2="541.1563"/><polygon fill="#A80036" points="800,537.1563,790,541.1563,800,545.1563,796,541.1563" style="stroke:#A80036;stroke-width:1.0;"/><text fill="#000000" font-family="sans-serif" font-size="13" lengthAdjust="spacing" textLength="538" x="796" y="523.0903">Verifica se o usuário logado é dono da conta para qual está atualizando a transação</text><path d="M50,556.1563 L364,556.1563 L364,563.1563 L354,573.1563 L50,573.1563 L50,556.1563 " fill="#EEEEEE" style="stroke:#000000;stroke-width:1.0;"/><rect fill="none" height="46.2656" style="stroke:#000000;stroke-width:2.0;" width="785.5" x="50" y="556.1563"/><text fill="#000000" font-family="sans-serif" font-size="13" font-weight="bold" lengthAdjust="spacing" textLength="269" x="65" y="569.2231">Usuário logado não é dono da conta</text><polygon fill="#A80036" points="100,590.4219,90,594.4219,100,598.4219,96,594.4219" style="stroke:#A80036;stroke-width:1.0;"/><line style="stroke:#A80036;stroke-width:1.0;" x1="94" x2="788" y1="594.4219" y2="594.4219"/><text fill="#000000" font-family="sans-serif" font-size="13" lengthAdjust="spacing" textLength="676" x="106" y="589.356">Exibe um erro informando que o usuário logado não é dono da conta para qual quer atualizar a transação</text><path d="M40,616.4219 L322,616.4219 L322,623.4219 L312,633.4219 L40,633.4219 L40,616.4219 " fill="#EEEEEE" style="stroke:#000000;stroke-width:1.0;"/><rect fill="none" height="221.9297" style="stroke:#000000;stroke-width:2.0;" width="1020" x="40" y="616.4219"/><text fill="#000000" font-family="sans-serif" font-size="13" font-weight="bold" lengthAdjust="spacing" textLength="237" x="55" y="629.4888">Usuário logado é dono da conta</text><line style="stroke:#A80036;stroke-width:1.0;" x1="789" x2="831" y1="654.6875" y2="654.6875"/><line style="stroke:#A80036;stroke-width:1.0;" x1="831" x2="831" y1="654.6875" y2="667.6875"/><line style="stroke:#A80036;stroke-width:1.0;" x1="790" x2="831" y1="667.6875" y2="667.6875"/><polygon fill="#A80036" points="800,663.6875,790,667.6875,800,671.6875,796,667.6875" style="stroke:#A80036;stroke-width:1.0;"/><text fill="#000000" font-family="sans-serif" font-size="13" lengthAdjust="spacing" textLength="252" x="796" y="649.6216">Realiza a validação dos dados enviados</text><path d="M50,682.6875 L212,682.6875 L212,689.6875 L202,699.6875 L50,699.6875 L50,682.6875 " fill="#EEEEEE" style="stroke:#000000;stroke-width:1.0;"/><rect fill="none" height="46.2656" style="stroke:#000000;stroke-width:2.0;" width="785.5" x="50" y="682.6875"/><text fill="#000000" font-family="sans-serif" font-size="13" font-weight="bold" lengthAdjust="spacing" textLength="117" x="65" y="695.7544">Dados inválidos</text><polygon fill="#A80036" points="100,716.9531,90,720.9531,100,724.9531,96,720.9531" style="stroke:#A80036;stroke-width:1.0;"/><line style="stroke:#A80036;stroke-width:1.0;stroke-dasharray:2.0,2.0;" x1="94" x2="788" y1="720.9531" y2="720.9531"/><text fill="#000000" font-family="sans-serif" font-size="13" lengthAdjust="spacing" textLength="217" x="106" y="715.8872">Exibe a lista de erros de validação</text><path d="M50,742.9531 L199,742.9531 L199,749.9531 L189,759.9531 L50,759.9531 L50,742.9531 " fill="#EEEEEE" style="stroke:#000000;stroke-width:1.0;"/><rect fill="none" height="88.3984" style="stroke:#000000;stroke-width:2.0;" width="980" x="50" y="742.9531"/><text fill="#000000" font-family="sans-serif" font-size="13" font-weight="bold" lengthAdjust="spacing" textLength="104" x="65" y="756.02">Dados válidos</text><line style="stroke:#A80036;stroke-width:1.0;" x1="789" x2="831" y1="781.2188" y2="781.2188"/><line style="stroke:#A80036;stroke-width:1.0;" x1="831" x2="831" y1="781.2188" y2="794.2188"/><line style="stroke:#A80036;stroke-width:1.0;" x1="790" x2="831" y1="794.2188" y2="794.2188"/><polygon fill="#A80036" points="800,790.2188,790,794.2188,800,798.2188,796,794.2188" style="stroke:#A80036;stroke-width:1.0;"/><text fill="#000000" font-family="sans-serif" font-size="13" lengthAdjust="spacing" textLength="222" x="796" y="776.1528">Realiza a atualização da transação</text><polygon fill="#A80036" points="100,819.3516,90,823.3516,100,827.3516,96,823.3516" style="stroke:#A80036;stroke-width:1.0;"/><line style="stroke:#A80036;stroke-width:1.0;stroke-dasharray:2.0,2.0;" x1="94" x2="788" y1="823.3516" y2="823.3516"/><text fill="#000000" font-family="sans-serif" font-size="13" lengthAdjust="spacing" textLength="189" x="106" y="818.2856">Retorna os dados atualizados</text><!--MD5=[d6f4781a528fd3be4f0d93420aa7d68b]
@startuml TRA04

actor Usuário
participant Sistema

Usuário -> Sistema: Envia os dados para atualização da transação

Sistema -> Sistema: Verifica se o usuário está autenticado

group Usuário não está autenticado
  Sistema -> Usuário: Exibe um erro informando que o usuário precisa estar autenticado
end

group Usuário está autenticado
  Sistema -> Sistema: Verifica se a transação solicitada existe

  group Transação não existe
    Sistema -> Usuário: Exibe um erro informando que a transação solicitada não existe
  end

  group Transação existente
    Sistema -> Sistema: Verifica se o usuário logado é o dono da transação

    group Usuário logado não é dono da transação
      Sistema -> Usuário: Exibe um erro informando que o usuário logado não é dono da transação
    end

    group Usuário logado é dono da transação
      Sistema -> Sistema: Verifica se o usuário logado é dono da conta para qual está atualizando a transação

      group Usuário logado não é dono da conta
        Sistema -> Usuário: Exibe um erro informando que o usuário logado não é dono da conta para qual quer atualizar a transação
      end

      group Usuário logado é dono da conta
        Sistema -> Sistema: Realiza a validação dos dados enviados

        group Dados inválidos
          Sistema - -> Usuário: Exibe a lista de erros de validação
        end

        group Dados válidos
          Sistema -> Sistema: Realiza a atualização da transação
          Sistema - -> Usuário: Retorna os dados atualizados
        end
      end
    end
  end
end

@enduml

PlantUML version 1.2021.16(Wed Dec 08 14:25:22 BRT 2021)
(GPL source distribution)
Java Runtime: OpenJDK Runtime Environment
JVM: OpenJDK 64-Bit Server VM
Default Encoding: UTF-8
Language: en
Country: null
--></g></svg>