<?xml version="1.0" encoding="UTF-8" standalone="no"?><svg xmlns="http://www.w3.org/2000/svg" xmlns:xlink="http://www.w3.org/1999/xlink" contentScriptType="application/ecmascript" contentStyleType="text/css" height="827px" preserveAspectRatio="none" style="width:882px;height:827px;background:#FFFFFF;" version="1.1" viewBox="0 0 882 827" width="882px" zoomAndPan="magnify"><defs><filter height="300%" id="f1o3a4vzyl8l9u" width="300%" x="-1" y="-1"><feGaussianBlur result="blurOut" stdDeviation="2.0"/><feColorMatrix in="blurOut" result="blurOut2" type="matrix" values="0 0 0 0 0 0 0 0 0 0 0 0 0 0 0 0 0 0 .4 0"/><feOffset dx="4.0" dy="4.0" in="blurOut2" result="blurOut3"/><feBlend in="SourceGraphic" in2="blurOut3" mode="normal"/></filter></defs><g><rect fill="#FFFFFF" filter="url(#f1o3a4vzyl8l9u)" height="46.2656" style="stroke:#000000;stroke-width:2.0;" width="549.5" x="40" y="176.5625"/><rect fill="#FFFFFF" filter="url(#f1o3a4vzyl8l9u)" height="488.9922" style="stroke:#000000;stroke-width:2.0;" width="858" x="10" y="236.8281"/><rect fill="#FFFFFF" filter="url(#f1o3a4vzyl8l9u)" height="46.2656" style="stroke:#000000;stroke-width:2.0;" width="549.5" x="40" y="303.0938"/><rect fill="#FFFFFF" filter="url(#f1o3a4vzyl8l9u)" height="355.4609" style="stroke:#000000;stroke-width:2.0;" width="838" x="20" y="363.3594"/><rect fill="#FFFFFF" filter="url(#f1o3a4vzyl8l9u)" height="221.9297" style="stroke:#000000;stroke-width:2.0;" width="806" x="30" y="429.625"/><rect fill="#FFFFFF" filter="url(#f1o3a4vzyl8l9u)" height="46.2656" style="stroke:#000000;stroke-width:2.0;" width="549.5" x="40" y="495.8906"/><rect fill="#FFFFFF" filter="url(#f1o3a4vzyl8l9u)" height="88.3984" style="stroke:#000000;stroke-width:2.0;" width="786" x="40" y="556.1563"/><rect fill="#FFFFFF" filter="url(#f1o3a4vzyl8l9u)" height="46.2656" style="stroke:#000000;stroke-width:2.0;" width="549.5" x="40" y="665.5547"/><line style="stroke:#A80036;stroke-width:1.0;stroke-dasharray:5.0,5.0;" x1="79" x2="79" y1="88.2969" y2="742.8203"/><line style="stroke:#A80036;stroke-width:1.0;stroke-dasharray:5.0,5.0;" x1="542.5" x2="542.5" y1="88.2969" y2="742.8203"/><text fill="#000000" font-family="sans-serif" font-size="14" lengthAdjust="spacing" textLength="52" x="50" y="84.9951">Usuário</text><ellipse cx="79" cy="15" fill="#FEFECE" filter="url(#f1o3a4vzyl8l9u)" rx="8" ry="8" style="stroke:#A80036;stroke-width:2.0;"/><path d="M79,23 L79,50 M66,31 L92,31 M79,50 L66,65 M79,50 L92,65 " fill="none" filter="url(#f1o3a4vzyl8l9u)" style="stroke:#A80036;stroke-width:2.0;"/><text fill="#000000" font-family="sans-serif" font-size="14" lengthAdjust="spacing" textLength="52" x="50" y="754.8154">Usuário</text><ellipse cx="79" cy="768.1172" fill="#FEFECE" filter="url(#f1o3a4vzyl8l9u)" rx="8" ry="8" style="stroke:#A80036;stroke-width:2.0;"/><path d="M79,776.1172 L79,803.1172 M66,784.1172 L92,784.1172 M79,803.1172 L66,818.1172 M79,803.1172 L92,818.1172 " fill="none" filter="url(#f1o3a4vzyl8l9u)" style="stroke:#A80036;stroke-width:2.0;"/><rect fill="#FEFECE" filter="url(#f1o3a4vzyl8l9u)" height="30.2969" style="stroke:#A80036;stroke-width:1.5;" width="69" x="506.5" y="53"/><text fill="#000000" font-family="sans-serif" font-size="14" lengthAdjust="spacing" textLength="55" x="513.5" y="72.9951">Sistema</text><rect fill="#FEFECE" filter="url(#f1o3a4vzyl8l9u)" height="30.2969" style="stroke:#A80036;stroke-width:1.5;" width="69" x="506.5" y="741.8203"/><text fill="#000000" font-family="sans-serif" font-size="14" lengthAdjust="spacing" textLength="55" x="513.5" y="761.8154">Sistema</text><polygon fill="#A80036" points="531,115.4297,541,119.4297,531,123.4297,535,119.4297" style="stroke:#A80036;stroke-width:1.0;"/><line style="stroke:#A80036;stroke-width:1.0;" x1="79" x2="537" y1="119.4297" y2="119.4297"/><text fill="#000000" font-family="sans-serif" font-size="13" lengthAdjust="spacing" textLength="266" x="86" y="114.3638">Envia os dados para atualização da conta</text><line style="stroke:#A80036;stroke-width:1.0;" x1="543" x2="585" y1="148.5625" y2="148.5625"/><line style="stroke:#A80036;stroke-width:1.0;" x1="585" x2="585" y1="148.5625" y2="161.5625"/><line style="stroke:#A80036;stroke-width:1.0;" x1="544" x2="585" y1="161.5625" y2="161.5625"/><polygon fill="#A80036" points="554,157.5625,544,161.5625,554,165.5625,550,161.5625" style="stroke:#A80036;stroke-width:1.0;"/><text fill="#000000" font-family="sans-serif" font-size="13" lengthAdjust="spacing" textLength="241" x="550" y="143.4966">Verifica se o usuário está autenticado</text><path d="M40,176.5625 L302,176.5625 L302,183.5625 L292,193.5625 L40,193.5625 L40,176.5625 " fill="#EEEEEE" style="stroke:#000000;stroke-width:1.0;"/><rect fill="none" height="46.2656" style="stroke:#000000;stroke-width:2.0;" width="549.5" x="40" y="176.5625"/><text fill="#000000" font-family="sans-serif" font-size="13" font-weight="bold" lengthAdjust="spacing" textLength="217" x="55" y="189.6294">Usuário não está autenticado</text><polygon fill="#A80036" points="90,210.8281,80,214.8281,90,218.8281,86,214.8281" style="stroke:#A80036;stroke-width:1.0;"/><line style="stroke:#A80036;stroke-width:1.0;" x1="84" x2="542" y1="214.8281" y2="214.8281"/><text fill="#000000" font-family="sans-serif" font-size="13" lengthAdjust="spacing" textLength="424" x="96" y="209.7622">Exibe um erro informando que o usuário precisa estar autenticado</text><path d="M10,236.8281 L240,236.8281 L240,243.8281 L230,253.8281 L10,253.8281 L10,236.8281 " fill="#EEEEEE" style="stroke:#000000;stroke-width:1.0;"/><rect fill="none" height="488.9922" style="stroke:#000000;stroke-width:2.0;" width="858" x="10" y="236.8281"/><text fill="#000000" font-family="sans-serif" font-size="13" font-weight="bold" lengthAdjust="spacing" textLength="185" x="25" y="249.895">Usuário está autenticado</text><line style="stroke:#A80036;stroke-width:1.0;" x1="543" x2="585" y1="275.0938" y2="275.0938"/><line style="stroke:#A80036;stroke-width:1.0;" x1="585" x2="585" y1="275.0938" y2="288.0938"/><line style="stroke:#A80036;stroke-width:1.0;" x1="544" x2="585" y1="288.0938" y2="288.0938"/><polygon fill="#A80036" points="554,284.0938,544,288.0938,554,292.0938,550,288.0938" style="stroke:#A80036;stroke-width:1.0;"/><text fill="#000000" font-family="sans-serif" font-size="13" lengthAdjust="spacing" textLength="208" x="550" y="270.0278">Verifica se a conta solicita existe</text><path d="M40,303.0938 L209,303.0938 L209,310.0938 L199,320.0938 L40,320.0938 L40,303.0938 " fill="#EEEEEE" style="stroke:#000000;stroke-width:1.0;"/><rect fill="none" height="46.2656" style="stroke:#000000;stroke-width:2.0;" width="549.5" x="40" y="303.0938"/><text fill="#000000" font-family="sans-serif" font-size="13" font-weight="bold" lengthAdjust="spacing" textLength="124" x="55" y="316.1606">Conta não existe</text><polygon fill="#A80036" points="90,337.3594,80,341.3594,90,345.3594,86,341.3594" style="stroke:#A80036;stroke-width:1.0;"/><line style="stroke:#A80036;stroke-width:1.0;" x1="84" x2="542" y1="341.3594" y2="341.3594"/><text fill="#000000" font-family="sans-serif" font-size="13" lengthAdjust="spacing" textLength="380" x="96" y="336.2935">Exibe um erro informando que a conta solicitada não existe</text><path d="M20,363.3594 L181,363.3594 L181,370.3594 L171,380.3594 L20,380.3594 L20,363.3594 " fill="#EEEEEE" style="stroke:#000000;stroke-width:1.0;"/><rect fill="none" height="355.4609" style="stroke:#000000;stroke-width:2.0;" width="838" x="20" y="363.3594"/><text fill="#000000" font-family="sans-serif" font-size="13" font-weight="bold" lengthAdjust="spacing" textLength="116" x="35" y="376.4263">Conta existente</text><line style="stroke:#A80036;stroke-width:1.0;" x1="543" x2="585" y1="401.625" y2="401.625"/><line style="stroke:#A80036;stroke-width:1.0;" x1="585" x2="585" y1="401.625" y2="414.625"/><line style="stroke:#A80036;stroke-width:1.0;" x1="544" x2="585" y1="414.625" y2="414.625"/><polygon fill="#A80036" points="554,410.625,544,414.625,554,418.625,550,414.625" style="stroke:#A80036;stroke-width:1.0;"/><text fill="#000000" font-family="sans-serif" font-size="13" lengthAdjust="spacing" textLength="296" x="550" y="396.5591">Verifica se o usuário logado é o dono da conta</text><path d="M30,429.625 L312,429.625 L312,436.625 L302,446.625 L30,446.625 L30,429.625 " fill="#EEEEEE" style="stroke:#000000;stroke-width:1.0;"/><rect fill="none" height="221.9297" style="stroke:#000000;stroke-width:2.0;" width="806" x="30" y="429.625"/><text fill="#000000" font-family="sans-serif" font-size="13" font-weight="bold" lengthAdjust="spacing" textLength="237" x="45" y="442.6919">Usuário logado é dono da conta</text><line style="stroke:#A80036;stroke-width:1.0;" x1="543" x2="585" y1="467.8906" y2="467.8906"/><line style="stroke:#A80036;stroke-width:1.0;" x1="585" x2="585" y1="467.8906" y2="480.8906"/><line style="stroke:#A80036;stroke-width:1.0;" x1="544" x2="585" y1="480.8906" y2="480.8906"/><polygon fill="#A80036" points="554,476.8906,544,480.8906,554,484.8906,550,480.8906" style="stroke:#A80036;stroke-width:1.0;"/><text fill="#000000" font-family="sans-serif" font-size="13" lengthAdjust="spacing" textLength="240" x="550" y="462.8247">Realiza validação dos dados enviados</text><path d="M40,495.8906 L202,495.8906 L202,502.8906 L192,512.8906 L40,512.8906 L40,495.8906 " fill="#EEEEEE" style="stroke:#000000;stroke-width:1.0;"/><rect fill="none" height="46.2656" style="stroke:#000000;stroke-width:2.0;" width="549.5" x="40" y="495.8906"/><text fill="#000000" font-family="sans-serif" font-size="13" font-weight="bold" lengthAdjust="spacing" textLength="117" x="55" y="508.9575">Dados inválidos</text><polygon fill="#A80036" points="90,530.1563,80,534.1563,90,538.1563,86,534.1563" style="stroke:#A80036;stroke-width:1.0;"/><line style="stroke:#A80036;stroke-width:1.0;" x1="84" x2="542" y1="534.1563" y2="534.1563"/><text fill="#000000" font-family="sans-serif" font-size="13" lengthAdjust="spacing" textLength="174" x="96" y="529.0903">Exibe os erros de validação</text><path d="M40,556.1563 L189,556.1563 L189,563.1563 L179,573.1563 L40,573.1563 L40,556.1563 " fill="#EEEEEE" style="stroke:#000000;stroke-width:1.0;"/><rect fill="none" height="88.3984" style="stroke:#000000;stroke-width:2.0;" width="786" x="40" y="556.1563"/><text fill="#000000" font-family="sans-serif" font-size="13" font-weight="bold" lengthAdjust="spacing" textLength="104" x="55" y="569.2231">Dados válidos</text><line style="stroke:#A80036;stroke-width:1.0;" x1="543" x2="585" y1="594.4219" y2="594.4219"/><line style="stroke:#A80036;stroke-width:1.0;" x1="585" x2="585" y1="594.4219" y2="607.4219"/><line style="stroke:#A80036;stroke-width:1.0;" x1="544" x2="585" y1="607.4219" y2="607.4219"/><polygon fill="#A80036" points="554,603.4219,544,607.4219,554,611.4219,550,607.4219" style="stroke:#A80036;stroke-width:1.0;"/><text fill="#000000" font-family="sans-serif" font-size="13" lengthAdjust="spacing" textLength="264" x="550" y="589.356">Realiza a atualização dos dados da conta</text><polygon fill="#A80036" points="90,632.5547,80,636.5547,90,640.5547,86,636.5547" style="stroke:#A80036;stroke-width:1.0;"/><line style="stroke:#A80036;stroke-width:1.0;" x1="84" x2="542" y1="636.5547" y2="636.5547"/><text fill="#000000" font-family="sans-serif" font-size="13" lengthAdjust="spacing" textLength="226" x="96" y="631.4888">Exibe os dados da conta atualizada</text><path d="M40,665.5547 L354,665.5547 L354,672.5547 L344,682.5547 L40,682.5547 L40,665.5547 " fill="#EEEEEE" style="stroke:#000000;stroke-width:1.0;"/><rect fill="none" height="46.2656" style="stroke:#000000;stroke-width:2.0;" width="549.5" x="40" y="665.5547"/><text fill="#000000" font-family="sans-serif" font-size="13" font-weight="bold" lengthAdjust="spacing" textLength="269" x="55" y="678.6216">Usuário logado não é dono da conta</text><polygon fill="#A80036" points="90,699.8203,80,703.8203,90,707.8203,86,703.8203" style="stroke:#A80036;stroke-width:1.0;"/><line style="stroke:#A80036;stroke-width:1.0;" x1="84" x2="542" y1="703.8203" y2="703.8203"/><text fill="#000000" font-family="sans-serif" font-size="13" lengthAdjust="spacing" textLength="440" x="96" y="698.7544">Exibe um erro informando que o usuário logado não é dono da conta</text><!--MD5=[0416ec8cd8bd769d70724430e4e50816]
@startuml CON04

actor Usuário
participant Sistema

Usuário -> Sistema: Envia os dados para atualização da conta

Sistema -> Sistema: Verifica se o usuário está autenticado

group Usuário não está autenticado
  Sistema -> Usuário: Exibe um erro informando que o usuário precisa estar autenticado
end

group Usuário está autenticado
  Sistema -> Sistema: Verifica se a conta solicita existe
  group Conta não existe
    Sistema -> Usuário: Exibe um erro informando que a conta solicitada não existe
  end

  group Conta existente
    Sistema -> Sistema: Verifica se o usuário logado é o dono da conta

    group Usuário logado é dono da conta
      Sistema -> Sistema: Realiza validação dos dados enviados

      group Dados inválidos
        Sistema -> Usuário: Exibe os erros de validação
      end

      group Dados válidos
        Sistema -> Sistema: Realiza a atualização dos dados da conta

        Sistema -> Usuário: Exibe os dados da conta atualizada
      end
    end

    group Usuário logado não é dono da conta
      Sistema -> Usuário: Exibe um erro informando que o usuário logado não é dono da conta
    end
  end
end

@enduml

PlantUML version 1.2021.16(Wed Dec 08 14:25:22 BRT 2021)
(GPL source distribution)
Java Runtime: OpenJDK Runtime Environment
JVM: OpenJDK 64-Bit Server VM
Default Encoding: UTF-8
Language: en
Country: null
--></g></svg>